<?xml version="1.0" encoding="UTF-8"?>
<svg xmlns="http://www.w3.org/2000/svg" xmlns:xlink="http://www.w3.org/1999/xlink" viewBox="0 0 43.13 36.1">
  <defs>
    <style>
      .cls-1 {
        opacity: .4;
      }

      .cls-1, .cls-2, .cls-3, .cls-4 {
        fill: #fff;
        mix-blend-mode: screen;
      }

      .cls-2 {
        opacity: .3;
      }

      .cls-3 {
        opacity: .6;
      }

      .cls-4 {
        opacity: .16;
      }

      .cls-5 {
        fill: url(#linear-gradient);
      }

      .cls-6 {
        fill: url(#linear-gradient-3);
      }

      .cls-7 {
        fill: url(#linear-gradient-4);
      }

      .cls-8 {
        fill: url(#linear-gradient-2);
      }

      .cls-9 {
        isolation: isolate;
      }

      .cls-10 {
        mix-blend-mode: multiply;
        opacity: .35;
      }
    </style>
    <linearGradient id="linear-gradient" x1="-178.24" y1="-205.09" x2="-164.93" y2="-205.09" gradientTransform="translate(-186.87 -157.15) rotate(-90) scale(1 -1)" gradientUnits="userSpaceOnUse">
      <stop offset="0" stop-color="#3e6896"/>
      <stop offset=".18" stop-color="#3b6491"/>
      <stop offset=".39" stop-color="#355982"/>
      <stop offset=".62" stop-color="#2b476b"/>
      <stop offset=".85" stop-color="#1d2f4a"/>
      <stop offset="1" stop-color="#131d32"/>
    </linearGradient>
    <linearGradient id="linear-gradient-2" x1="-185.96" y1="-192.06" x2="-169.56" y2="-192.06" gradientTransform="translate(-186.87 -157.15) rotate(-90) scale(1 -1)" gradientUnits="userSpaceOnUse">
      <stop offset="0" stop-color="#3e6896"/>
      <stop offset=".25" stop-color="#355881"/>
      <stop offset=".75" stop-color="#1f324e"/>
      <stop offset="1" stop-color="#131d32"/>
    </linearGradient>
    <linearGradient id="linear-gradient-3" x1="-167.06" y1="-185.99" x2="-167.06" y2="-208.67" gradientTransform="translate(-186.87 -157.15) rotate(-90) scale(1 -1)" gradientUnits="userSpaceOnUse">
      <stop offset="0" stop-color="#5f2c82"/>
      <stop offset=".04" stop-color="#5d3283"/>
      <stop offset=".35" stop-color="#54618e"/>
      <stop offset=".62" stop-color="#4e8396"/>
      <stop offset=".85" stop-color="#4a989b"/>
      <stop offset="1" stop-color="#49a09d"/>
    </linearGradient>
    <linearGradient id="linear-gradient-4" x1="-180.38" y1="-228.74" x2="-180.38" y2="-187.11" gradientTransform="translate(-186.87 -157.15) rotate(-90) scale(1 -1)" gradientUnits="userSpaceOnUse">
      <stop offset="0" stop-color="#00f3ff"/>
      <stop offset=".27" stop-color="#00effc"/>
      <stop offset=".5" stop-color="#00e5f6"/>
      <stop offset=".71" stop-color="#00d3ec"/>
      <stop offset=".92" stop-color="#0bd"/>
      <stop offset="1" stop-color="#00afd6"/>
    </linearGradient>
  </defs>
  <g class="cls-9">
    <g id="Layer_2" data-name="Layer 2">
      <g id="Layer_3" data-name="Layer 3">
        <g>
          <rect class="cls-5" x="13.03" y="7.77" width="10.37" height="13.31"/>
          <rect class="cls-8" y="12.41" width="10.37" height="16.4"/>
          <path class="cls-6" d="M8.3,0L0,4.27v15.56l3.87-2s.03-.01,.04-.02l6.46-3.33,2.66-1.37,10.37-5.34-7.13-3.67s-.01,0-.02,0l-3.74-1.92s-.01,0-.02,0L8.3,0Z"/>
          <path class="cls-7" d="M28.42,10.35l-5.02,2.58-10.37,5.34-2.66,1.37L0,25v7.09l7.81,4.02,4.71-2.42s.02-.01,.03-.02l30.58-15.74-4.79-2.47s-.03-.02-.05-.02l-6.95-3.58s-.02-.01-.03-.02l-2.88-1.48Z"/>
          <path class="cls-3" d="M38.28,15.43c.79,.45,1.58,.89,2.38,1.33l2.1,1.16-3.58,1.76c-1.29,.63-2.57,1.27-3.85,1.92l-3.84,1.95-3.82,1.97-3.81,1.99c-1.27,.67-2.53,1.35-3.8,2.03-1.26,.68-2.53,1.35-3.79,2.04-1.24,.69-2.5,1.37-3.73,2.08l30.58-15.74-4.79-2.47s-.03-.02-.05-.02Z"/>
          <path class="cls-10" d="M23.41,12.94v-.25l-2.21,1.09-3.57,1.79-3.56,1.82-1.03,.53v.36l-2.66,1.37v-.36l-3.4,1.78c-2.34,1.21-4.65,2.48-6.97,3.72v6.09c.03-.69,.05-1.38,.07-2.08,0-.29,.02-.58,.02-.87,.03-.95,.06-1.89,.08-2.84,2.36-1.17,4.73-2.32,7.07-3.51l3.14-1.6,.43-.22,2.23-1.15,1.32-.68,3.54-1.85,3.54-1.86,1.97-1.06,1.55-.84c1.16-.62,2.32-1.25,3.47-1.89,.95,.46,1.91,.92,2.87,1.37l-2.88-1.48-5.02,2.58Z"/>
          <path class="cls-1" d="M16.28,4.1c.58,.34,1.15,.67,1.73,.99l1.76,.99c1.03,.57,2.05,1.13,3.08,1.68,0,0-.01,0-.02,0-1.49,.73-2.97,1.48-4.45,2.24l-2.44,1.26-2.44,1.27c-.16,.08-.31,.17-.47,.25-.89,.47-1.77,.94-2.66,1.42-.57,.31-1.14,.62-1.71,.93-.8,.44-1.6,.88-2.4,1.34-.8,.45-1.6,.9-2.39,1.36,.02,0,.03-.01,.04-.02l6.46-3.33,2.66-1.37,10.37-5.34-7.13-3.67Z"/>
          <path class="cls-10" d="M8.3,0L0,4.27V15.94c.06-.97,.09-1.94,.14-2.92,.04-.98,.07-1.95,.09-2.92s.04-1.94,.05-2.92c.02-.91,.02-1.81,.02-2.72,.64-.32,1.27-.65,1.9-.98l2.07-1.08C5.63,1.69,6.97,.97,8.3,.23c.68,.33,1.36,.65,2.05,.96,.72,.33,1.43,.66,2.15,.97L8.3,0Z"/>
          <path class="cls-4" d="M8.3,1.27L3.12,3.94c4.16,1.29,9.46,3.24,13.88,5.86l3.92-2.02-5.1-2.63-.19-.06-.06-.07L8.3,1.27Z"/>
          <path class="cls-2" d="M28.42,11.63l-5.47,2.82c3,3.36,4.01,7.4,.89,12.13l16.81-8.65-2.8-1.45-.05-.02-.03-.02-6.98-3.59-2.36-1.22Z"/>
        </g>
      </g>
    </g>
  </g>
</svg>