<?xml version="1.0" encoding="UTF-8"?>
<svg xmlns="http://www.w3.org/2000/svg" xmlns:xlink="http://www.w3.org/1999/xlink" viewBox="0 0 1650.94 948.92">
  <defs>
    <style>
      .cls-1 {
        fill: url(#linear-gradient);
      }

      .cls-2, .cls-3 {
        fill: #f8ac9b;
      }

      .cls-4 {
        fill: #f2f2f2;
      }

      .cls-5 {
        fill: #ffdf00;
      }

      .cls-6, .cls-7 {
        fill: #fff;
      }

      .cls-8 {
        fill: #fcd721;
      }

      .cls-9 {
        fill: #fbae17;
      }

      .cls-10 {
        fill: #fea600;
      }

      .cls-11 {
        fill: #febf00;
      }

      .cls-12, .cls-13 {
        fill: #221f1f;
      }

      .cls-14 {
        fill: #43457b;
      }

      .cls-15 {
        fill: #363868;
      }

      .cls-16, .cls-17, .cls-3, .cls-13, .cls-18 {
        mix-blend-mode: multiply;
      }

      .cls-16, .cls-13 {
        opacity: .1;
      }

      .cls-17 {
        fill: #999;
      }

      .cls-17, .cls-18, .cls-7 {
        opacity: .3;
      }

      .cls-3 {
        opacity: .5;
      }

      .cls-19 {
        fill: url(#linear-gradient-8);
      }

      .cls-20 {
        fill: url(#linear-gradient-9);
      }

      .cls-21 {
        fill: url(#linear-gradient-3);
      }

      .cls-22 {
        fill: url(#linear-gradient-4);
      }

      .cls-23 {
        fill: url(#linear-gradient-2);
      }

      .cls-24 {
        fill: url(#linear-gradient-6);
      }

      .cls-25 {
        fill: url(#linear-gradient-7);
      }

      .cls-26 {
        fill: url(#linear-gradient-5);
      }

      .cls-27 {
        fill: url(#linear-gradient-59);
      }

      .cls-28 {
        fill: url(#linear-gradient-57);
      }

      .cls-29 {
        fill: url(#linear-gradient-58);
      }

      .cls-30 {
        fill: url(#linear-gradient-55);
      }

      .cls-31 {
        fill: url(#linear-gradient-56);
      }

      .cls-32 {
        fill: url(#linear-gradient-53);
      }

      .cls-33 {
        fill: url(#linear-gradient-54);
      }

      .cls-34 {
        fill: url(#linear-gradient-51);
      }

      .cls-35 {
        fill: url(#linear-gradient-52);
      }

      .cls-36 {
        fill: url(#linear-gradient-50);
      }

      .cls-37 {
        fill: url(#linear-gradient-77);
      }

      .cls-38 {
        fill: url(#linear-gradient-78);
      }

      .cls-39 {
        fill: url(#linear-gradient-79);
      }

      .cls-40 {
        fill: url(#linear-gradient-74);
      }

      .cls-41 {
        fill: url(#linear-gradient-75);
      }

      .cls-42 {
        fill: url(#linear-gradient-76);
      }

      .cls-43 {
        fill: url(#linear-gradient-70);
      }

      .cls-44 {
        fill: url(#linear-gradient-71);
      }

      .cls-45 {
        fill: url(#linear-gradient-72);
      }

      .cls-46 {
        fill: url(#linear-gradient-73);
      }

      .cls-47 {
        fill: url(#linear-gradient-68);
      }

      .cls-48 {
        fill: url(#linear-gradient-67);
      }

      .cls-49 {
        fill: url(#linear-gradient-69);
      }

      .cls-50 {
        fill: url(#linear-gradient-64);
      }

      .cls-51 {
        fill: url(#linear-gradient-63);
      }

      .cls-52 {
        fill: url(#linear-gradient-66);
      }

      .cls-53 {
        fill: url(#linear-gradient-65);
      }

      .cls-54 {
        fill: url(#linear-gradient-60);
      }

      .cls-55 {
        fill: url(#linear-gradient-62);
      }

      .cls-56 {
        fill: url(#linear-gradient-61);
      }

      .cls-57 {
        fill: url(#linear-gradient-91);
      }

      .cls-58 {
        fill: url(#linear-gradient-95);
      }

      .cls-59 {
        fill: url(#linear-gradient-96);
      }

      .cls-60 {
        fill: url(#linear-gradient-97);
      }

      .cls-61 {
        fill: url(#linear-gradient-94);
      }

      .cls-62 {
        fill: url(#linear-gradient-92);
      }

      .cls-63 {
        fill: url(#linear-gradient-93);
      }

      .cls-64 {
        fill: url(#linear-gradient-90);
      }

      .cls-65 {
        fill: url(#linear-gradient-81);
      }

      .cls-66 {
        fill: url(#linear-gradient-80);
      }

      .cls-67 {
        fill: url(#linear-gradient-88);
      }

      .cls-68 {
        fill: url(#linear-gradient-89);
      }

      .cls-69 {
        fill: url(#linear-gradient-87);
      }

      .cls-70 {
        fill: url(#linear-gradient-86);
      }

      .cls-71 {
        fill: url(#linear-gradient-85);
      }

      .cls-72 {
        fill: url(#linear-gradient-84);
      }

      .cls-73 {
        fill: url(#linear-gradient-83);
      }

      .cls-74 {
        fill: url(#linear-gradient-82);
      }

      .cls-75 {
        fill: url(#linear-gradient-41);
      }

      .cls-76 {
        fill: url(#linear-gradient-40);
      }

      .cls-77 {
        fill: url(#linear-gradient-43);
      }

      .cls-78 {
        fill: url(#linear-gradient-42);
      }

      .cls-79 {
        fill: url(#linear-gradient-45);
      }

      .cls-80 {
        fill: url(#linear-gradient-46);
      }

      .cls-81 {
        fill: url(#linear-gradient-44);
      }

      .cls-82 {
        fill: url(#linear-gradient-49);
      }

      .cls-83 {
        fill: url(#linear-gradient-47);
      }

      .cls-84 {
        fill: url(#linear-gradient-48);
      }

      .cls-85 {
        fill: url(#linear-gradient-14);
      }

      .cls-86 {
        fill: url(#linear-gradient-18);
      }

      .cls-87 {
        fill: url(#linear-gradient-22);
      }

      .cls-88 {
        fill: url(#linear-gradient-20);
      }

      .cls-89 {
        fill: url(#linear-gradient-21);
      }

      .cls-90 {
        fill: url(#linear-gradient-23);
      }

      .cls-91 {
        fill: url(#linear-gradient-15);
      }

      .cls-92 {
        fill: url(#linear-gradient-19);
      }

      .cls-93 {
        fill: url(#linear-gradient-16);
      }

      .cls-94 {
        fill: url(#linear-gradient-17);
      }

      .cls-95 {
        fill: url(#linear-gradient-13);
      }

      .cls-96 {
        fill: url(#linear-gradient-12);
      }

      .cls-97 {
        fill: url(#linear-gradient-10);
      }

      .cls-98 {
        fill: url(#linear-gradient-11);
      }

      .cls-99 {
        fill: url(#linear-gradient-27);
      }

      .cls-100 {
        fill: url(#linear-gradient-24);
      }

      .cls-101 {
        fill: url(#linear-gradient-26);
      }

      .cls-102 {
        fill: url(#linear-gradient-38);
      }

      .cls-103 {
        fill: url(#linear-gradient-35);
      }

      .cls-104 {
        fill: url(#linear-gradient-37);
      }

      .cls-105 {
        fill: url(#linear-gradient-34);
      }

      .cls-106 {
        fill: url(#linear-gradient-39);
      }

      .cls-107 {
        fill: url(#linear-gradient-36);
      }

      .cls-108 {
        fill: url(#linear-gradient-25);
      }

      .cls-109 {
        fill: url(#linear-gradient-28);
      }

      .cls-110 {
        fill: url(#linear-gradient-29);
      }

      .cls-111 {
        fill: url(#linear-gradient-33);
      }

      .cls-112 {
        fill: url(#linear-gradient-30);
      }

      .cls-113 {
        fill: url(#linear-gradient-32);
      }

      .cls-114 {
        fill: url(#linear-gradient-31);
      }

      .cls-115 {
        isolation: isolate;
      }
    </style>
    <linearGradient id="linear-gradient" x1="-4450.72" y1="841.74" x2="-4336.43" y2="841.74" gradientTransform="translate(5987.37)" gradientUnits="userSpaceOnUse">
      <stop offset="0" stop-color="#5e6398"/>
      <stop offset="1" stop-color="#292e6f"/>
    </linearGradient>
    <linearGradient id="linear-gradient-2" x1="7628.93" y1="788.66" x2="7749.76" y2="788.66" gradientTransform="translate(9191.01) rotate(-180) scale(1 -1)" gradientUnits="userSpaceOnUse">
      <stop offset="0" stop-color="#3393eb"/>
      <stop offset="1" stop-color="#37bedf"/>
    </linearGradient>
    <linearGradient id="linear-gradient-3" x1="-4472.44" y1="868.16" x2="-4429.19" y2="909.47" gradientTransform="translate(5987.37)" gradientUnits="userSpaceOnUse">
      <stop offset="0" stop-color="#a2ed94"/>
      <stop offset="1" stop-color="#69c7b3"/>
    </linearGradient>
    <linearGradient id="linear-gradient-4" x1="15129.64" y1="858.93" x2="15259.89" y2="858.93" gradientTransform="translate(16619.92) rotate(-180) scale(1 -1)" gradientUnits="userSpaceOnUse">
      <stop offset="0" stop-color="#c7e9f9"/>
      <stop offset="1" stop-color="#f1f9fe"/>
    </linearGradient>
    <linearGradient id="linear-gradient-5" x1="1253.95" y1="297.36" x2="1459.51" y2="297.36" gradientUnits="userSpaceOnUse">
      <stop offset="0" stop-color="#f6fdfe"/>
      <stop offset="1" stop-color="#faf8ff"/>
    </linearGradient>
    <linearGradient id="linear-gradient-6" x1="1253.11" y1="296.32" x2="1458.68" y2="296.32" gradientUnits="userSpaceOnUse">
      <stop offset="0" stop-color="#eefcfe"/>
      <stop offset="1" stop-color="#f5f1ff"/>
    </linearGradient>
    <linearGradient id="linear-gradient-7" x1="1252.28" y1="295.27" x2="1457.84" y2="295.27" gradientUnits="userSpaceOnUse">
      <stop offset="0" stop-color="#e5fafd"/>
      <stop offset="1" stop-color="#f0ebff"/>
    </linearGradient>
    <linearGradient id="linear-gradient-8" x1="1251.45" y1="294.23" x2="1457.01" y2="294.23" gradientUnits="userSpaceOnUse">
      <stop offset="0" stop-color="#ddf9fd"/>
      <stop offset="1" stop-color="#ebe4ff"/>
    </linearGradient>
    <linearGradient id="linear-gradient-9" x1="1250.61" y1="293.18" x2="1456.17" y2="293.18" gradientUnits="userSpaceOnUse">
      <stop offset="0" stop-color="#d4f7fc"/>
      <stop offset="1" stop-color="#e6ddff"/>
    </linearGradient>
    <linearGradient id="linear-gradient-10" x1="1249.78" y1="292.14" x2="1455.34" y2="292.14" gradientUnits="userSpaceOnUse">
      <stop offset="0" stop-color="#ccf6fc"/>
      <stop offset="1" stop-color="#e1d6fe"/>
    </linearGradient>
    <linearGradient id="linear-gradient-11" x1="1248.94" y1="291.1" x2="1454.5" y2="291.1" gradientUnits="userSpaceOnUse">
      <stop offset="0" stop-color="#c3f4fb"/>
      <stop offset="1" stop-color="#dcd0fe"/>
    </linearGradient>
    <linearGradient id="linear-gradient-12" x1="1248.11" y1="290.05" x2="1453.67" y2="290.05" gradientUnits="userSpaceOnUse">
      <stop offset="0" stop-color="#baf3fa"/>
      <stop offset="1" stop-color="#d7c9fe"/>
    </linearGradient>
    <linearGradient id="linear-gradient-13" x1="1247.27" y1="289.01" x2="1452.83" y2="289.01" gradientUnits="userSpaceOnUse">
      <stop offset="0" stop-color="#b2f1fa"/>
      <stop offset="1" stop-color="#d2c2fe"/>
    </linearGradient>
    <linearGradient id="linear-gradient-14" x1="1246.44" y1="287.96" x2="1452" y2="287.96" gradientUnits="userSpaceOnUse">
      <stop offset="0" stop-color="#a9f0f9"/>
      <stop offset="1" stop-color="#cdbbfe"/>
    </linearGradient>
    <linearGradient id="linear-gradient-15" x1="1245.6" y1="286.92" x2="1451.16" y2="286.92" gradientUnits="userSpaceOnUse">
      <stop offset="0" stop-color="#a1eef9"/>
      <stop offset="1" stop-color="#c9b5fe"/>
    </linearGradient>
    <linearGradient id="linear-gradient-16" x1="1244.77" y1="285.87" x2="1450.33" y2="285.87" gradientUnits="userSpaceOnUse">
      <stop offset="0" stop-color="#98edf8"/>
      <stop offset="1" stop-color="#c4aefe"/>
    </linearGradient>
    <linearGradient id="linear-gradient-17" x1="1243.93" y1="284.83" x2="1449.49" y2="284.83" gradientUnits="userSpaceOnUse">
      <stop offset="0" stop-color="#90ebf8"/>
      <stop offset="1" stop-color="#bfa7fe"/>
    </linearGradient>
    <linearGradient id="linear-gradient-18" x1="1243.1" y1="283.78" x2="1448.66" y2="283.78" gradientUnits="userSpaceOnUse">
      <stop offset="0" stop-color="#87eaf7"/>
      <stop offset="1" stop-color="#baa0fe"/>
    </linearGradient>
    <linearGradient id="linear-gradient-19" x1="1242.26" y1="282.74" x2="1447.82" y2="282.74" gradientUnits="userSpaceOnUse">
      <stop offset="0" stop-color="#7ee8f6"/>
      <stop offset="1" stop-color="#b59afe"/>
    </linearGradient>
    <linearGradient id="linear-gradient-20" x1="1241.43" y1="281.69" x2="1446.99" y2="281.69" gradientUnits="userSpaceOnUse">
      <stop offset="0" stop-color="#76e7f6"/>
      <stop offset="1" stop-color="#b093fd"/>
    </linearGradient>
    <linearGradient id="linear-gradient-21" x1="1240.59" y1="280.65" x2="1446.15" y2="280.65" gradientUnits="userSpaceOnUse">
      <stop offset="0" stop-color="#6de5f5"/>
      <stop offset="1" stop-color="#ab8cfd"/>
    </linearGradient>
    <linearGradient id="linear-gradient-22" x1="1239.76" y1="279.61" x2="1445.32" y2="279.61" gradientUnits="userSpaceOnUse">
      <stop offset="0" stop-color="#65e4f5"/>
      <stop offset="1" stop-color="#a685fd"/>
    </linearGradient>
    <linearGradient id="linear-gradient-23" x1="1238.92" y1="278.56" x2="1444.48" y2="278.56" gradientUnits="userSpaceOnUse">
      <stop offset="0" stop-color="#5ce2f4"/>
      <stop offset="1" stop-color="#a17ffd"/>
    </linearGradient>
    <linearGradient id="linear-gradient-24" x1="1238.09" y1="277.52" x2="1443.65" y2="277.52" gradientUnits="userSpaceOnUse">
      <stop offset="0" stop-color="#54e1f4"/>
      <stop offset="1" stop-color="#9c78fd"/>
    </linearGradient>
    <linearGradient id="linear-gradient-25" x1="1237.25" y1="276.47" x2="1442.82" y2="276.47" gradientUnits="userSpaceOnUse">
      <stop offset="0" stop-color="#4bdff3"/>
      <stop offset="1" stop-color="#9771fd"/>
    </linearGradient>
    <linearGradient id="linear-gradient-26" x1="1345.29" y1="229.15" x2="1392.55" y2="229.15" gradientUnits="userSpaceOnUse">
      <stop offset="0" stop-color="#febf00"/>
      <stop offset=".98" stop-color="#ffdf00"/>
    </linearGradient>
    <linearGradient id="linear-gradient-27" x1="1268.96" y1="274.2" x2="1340.03" y2="274.2" gradientTransform="matrix(1, 0, 0, 1, 0, 0)" xlink:href="#linear-gradient-3"/>
    <linearGradient id="linear-gradient-28" x1="1340.03" y1="286.23" x2="1411.11" y2="286.23" gradientUnits="userSpaceOnUse">
      <stop offset="0" stop-color="#6466d7"/>
      <stop offset="1" stop-color="#ac81f9"/>
    </linearGradient>
    <linearGradient id="linear-gradient-29" x1="700.34" y1="297.33" x2="905.85" y2="297.33" gradientUnits="userSpaceOnUse">
      <stop offset="0" stop-color="#f9feff"/>
      <stop offset="1" stop-color="#fbfaff"/>
    </linearGradient>
    <linearGradient id="linear-gradient-30" x1="699.51" y1="296.29" x2="905.01" y2="296.29" gradientUnits="userSpaceOnUse">
      <stop offset="0" stop-color="#f3fdfe"/>
      <stop offset="1" stop-color="#f8f5ff"/>
    </linearGradient>
    <linearGradient id="linear-gradient-31" x1="698.67" y1="295.24" x2="904.18" y2="295.24" gradientUnits="userSpaceOnUse">
      <stop offset="0" stop-color="#edfcfe"/>
      <stop offset="1" stop-color="#f4f1ff"/>
    </linearGradient>
    <linearGradient id="linear-gradient-32" x1="697.84" y1="294.2" x2="903.34" y2="294.2" gradientUnits="userSpaceOnUse">
      <stop offset="0" stop-color="#e6fbfd"/>
      <stop offset="1" stop-color="#f1ecff"/>
    </linearGradient>
    <linearGradient id="linear-gradient-33" x1="697" y1="293.16" x2="902.51" y2="293.16" gradientUnits="userSpaceOnUse">
      <stop offset="0" stop-color="#e0fafd"/>
      <stop offset="1" stop-color="#ede7ff"/>
    </linearGradient>
    <linearGradient id="linear-gradient-34" x1="696.17" y1="292.11" x2="901.67" y2="292.11" gradientUnits="userSpaceOnUse">
      <stop offset="0" stop-color="#daf8fc"/>
      <stop offset="1" stop-color="#eae2ff"/>
    </linearGradient>
    <linearGradient id="linear-gradient-35" x1="695.33" y1="291.07" x2="900.84" y2="291.07" xlink:href="#linear-gradient-9"/>
    <linearGradient id="linear-gradient-36" x1="694.5" y1="290.02" x2="900" y2="290.02" gradientUnits="userSpaceOnUse">
      <stop offset="0" stop-color="#cef6fc"/>
      <stop offset="1" stop-color="#e3d9ff"/>
    </linearGradient>
    <linearGradient id="linear-gradient-37" x1="693.67" y1="288.98" x2="899.17" y2="288.98" gradientUnits="userSpaceOnUse">
      <stop offset="0" stop-color="#c8f5fb"/>
      <stop offset="1" stop-color="#dfd4ff"/>
    </linearGradient>
    <linearGradient id="linear-gradient-38" x1="692.83" y1="287.93" x2="898.33" y2="287.93" gradientUnits="userSpaceOnUse">
      <stop offset="0" stop-color="#c2f4fb"/>
      <stop offset="1" stop-color="#dccfff"/>
    </linearGradient>
    <linearGradient id="linear-gradient-39" x1="692" y1="286.89" x2="897.5" y2="286.89" gradientUnits="userSpaceOnUse">
      <stop offset="0" stop-color="#bbf3fa"/>
      <stop offset="1" stop-color="#d8cafe"/>
    </linearGradient>
    <linearGradient id="linear-gradient-40" x1="691.16" y1="285.85" x2="896.67" y2="285.85" gradientUnits="userSpaceOnUse">
      <stop offset="0" stop-color="#b5f2fa"/>
      <stop offset="1" stop-color="#d5c5fe"/>
    </linearGradient>
    <linearGradient id="linear-gradient-41" x1="690.33" y1="284.8" x2="895.83" y2="284.8" gradientUnits="userSpaceOnUse">
      <stop offset="0" stop-color="#aff1f9"/>
      <stop offset="1" stop-color="#d1c0fe"/>
    </linearGradient>
    <linearGradient id="linear-gradient-42" x1="689.49" y1="283.76" x2="895" y2="283.76" gradientUnits="userSpaceOnUse">
      <stop offset="0" stop-color="#a9f0f9"/>
      <stop offset="1" stop-color="#cebcfe"/>
    </linearGradient>
    <linearGradient id="linear-gradient-43" x1="688.66" y1="282.71" x2="894.16" y2="282.71" gradientUnits="userSpaceOnUse">
      <stop offset="0" stop-color="#a3eff9"/>
      <stop offset="1" stop-color="#cab7fe"/>
    </linearGradient>
    <linearGradient id="linear-gradient-44" x1="687.82" y1="281.67" x2="893.33" y2="281.67" gradientUnits="userSpaceOnUse">
      <stop offset="0" stop-color="#9dedf8"/>
      <stop offset="1" stop-color="#c7b2fe"/>
    </linearGradient>
    <linearGradient id="linear-gradient-45" x1="686.99" y1="280.62" x2="892.49" y2="280.62" gradientUnits="userSpaceOnUse">
      <stop offset="0" stop-color="#97ecf8"/>
      <stop offset="1" stop-color="#c3adfe"/>
    </linearGradient>
    <linearGradient id="linear-gradient-46" x1="686.15" y1="279.58" x2="891.66" y2="279.58" gradientUnits="userSpaceOnUse">
      <stop offset="0" stop-color="#90ebf7"/>
      <stop offset="1" stop-color="#c0a8fe"/>
    </linearGradient>
    <linearGradient id="linear-gradient-47" x1="685.32" y1="278.54" x2="890.82" y2="278.54" gradientUnits="userSpaceOnUse">
      <stop offset="0" stop-color="#8aeaf7"/>
      <stop offset="1" stop-color="#bca4fe"/>
    </linearGradient>
    <linearGradient id="linear-gradient-48" x1="684.49" y1="277.49" x2="889.99" y2="277.49" gradientUnits="userSpaceOnUse">
      <stop offset="0" stop-color="#84e9f6"/>
      <stop offset="1" stop-color="#b99ffe"/>
    </linearGradient>
    <linearGradient id="linear-gradient-49" x1="683.65" y1="276.45" x2="889.15" y2="276.45" gradientUnits="userSpaceOnUse">
      <stop offset="0" stop-color="#7ee8f6"/>
      <stop offset="1" stop-color="#b59afe"/>
    </linearGradient>
    <linearGradient id="linear-gradient-50" x1="808.84" y1="323.92" x2="808.84" y2="224.56" gradientTransform="matrix(1, 0, 0, 1, 0, 0)" xlink:href="#linear-gradient-4"/>
    <linearGradient id="linear-gradient-51" x1="763.97" y1="323.92" x2="763.97" y2="224.56" gradientTransform="matrix(1, 0, 0, 1, 0, 0)" xlink:href="#linear-gradient-4"/>
    <linearGradient id="linear-gradient-52" x1="853.71" y1="323.92" x2="853.71" y2="224.56" gradientTransform="matrix(1, 0, 0, 1, 0, 0)" xlink:href="#linear-gradient-4"/>
    <linearGradient id="linear-gradient-53" x1="719.1" y1="323.92" x2="719.1" y2="224.56" gradientTransform="matrix(1, 0, 0, 1, 0, 0)" xlink:href="#linear-gradient-4"/>
    <linearGradient id="linear-gradient-54" x1="808.84" y1="367.36" x2="808.84" y2="272.2" gradientUnits="userSpaceOnUse">
      <stop offset="0" stop-color="#ffb682"/>
      <stop offset="1" stop-color="#ee5379"/>
    </linearGradient>
    <linearGradient id="linear-gradient-55" x1="763.97" y1="367.36" x2="763.97" y2="272.2" gradientTransform="matrix(1, 0, 0, 1, 0, 0)" xlink:href="#linear-gradient-2"/>
    <linearGradient id="linear-gradient-56" x1="719.1" y1="367.36" x2="719.1" y2="272.2" xlink:href="#linear-gradient-54"/>
    <linearGradient id="linear-gradient-57" x1="853.71" y1="367.36" x2="853.71" y2="272.2" gradientTransform="matrix(1, 0, 0, 1, 0, 0)" xlink:href="#linear-gradient-2"/>
    <linearGradient id="linear-gradient-58" x1="982.65" y1="107.36" x2="1188.15" y2="107.36" xlink:href="#linear-gradient-29"/>
    <linearGradient id="linear-gradient-59" x1="981.81" y1="106.31" x2="1187.32" y2="106.31" xlink:href="#linear-gradient-30"/>
    <linearGradient id="linear-gradient-60" x1="980.98" y1="105.27" x2="1186.48" y2="105.27" xlink:href="#linear-gradient-31"/>
    <linearGradient id="linear-gradient-61" x1="980.14" y1="104.22" x2="1185.65" y2="104.22" xlink:href="#linear-gradient-32"/>
    <linearGradient id="linear-gradient-62" x1="979.31" y1="103.18" x2="1184.81" y2="103.18" xlink:href="#linear-gradient-33"/>
    <linearGradient id="linear-gradient-63" x1="978.47" y1="102.14" x2="1183.98" y2="102.14" xlink:href="#linear-gradient-34"/>
    <linearGradient id="linear-gradient-64" x1="977.64" y1="101.09" x2="1183.14" y2="101.09" xlink:href="#linear-gradient-9"/>
    <linearGradient id="linear-gradient-65" x1="976.8" y1="100.05" x2="1182.31" y2="100.05" xlink:href="#linear-gradient-36"/>
    <linearGradient id="linear-gradient-66" x1="975.97" y1="99" x2="1181.47" y2="99" xlink:href="#linear-gradient-37"/>
    <linearGradient id="linear-gradient-67" x1="975.13" y1="97.96" x2="1180.64" y2="97.96" xlink:href="#linear-gradient-38"/>
    <linearGradient id="linear-gradient-68" x1="974.3" y1="96.91" x2="1179.8" y2="96.91" xlink:href="#linear-gradient-39"/>
    <linearGradient id="linear-gradient-69" x1="973.47" y1="95.87" x2="1178.97" y2="95.87" xlink:href="#linear-gradient-40"/>
    <linearGradient id="linear-gradient-70" x1="972.63" y1="94.83" x2="1178.14" y2="94.83" xlink:href="#linear-gradient-41"/>
    <linearGradient id="linear-gradient-71" x1="971.8" y1="93.78" x2="1177.3" y2="93.78" xlink:href="#linear-gradient-42"/>
    <linearGradient id="linear-gradient-72" x1="970.96" y1="92.74" x2="1176.47" y2="92.74" xlink:href="#linear-gradient-43"/>
    <linearGradient id="linear-gradient-73" x1="970.13" y1="91.69" x2="1175.63" y2="91.69" xlink:href="#linear-gradient-44"/>
    <linearGradient id="linear-gradient-74" x1="969.29" y1="90.65" x2="1174.8" y2="90.65" xlink:href="#linear-gradient-45"/>
    <linearGradient id="linear-gradient-75" x1="968.46" y1="89.6" x2="1173.96" y2="89.6" xlink:href="#linear-gradient-46"/>
    <linearGradient id="linear-gradient-76" x1="967.62" y1="88.56" x2="1173.13" y2="88.56" xlink:href="#linear-gradient-47"/>
    <linearGradient id="linear-gradient-77" x1="966.79" y1="87.52" x2="1172.29" y2="87.52" xlink:href="#linear-gradient-48"/>
    <linearGradient id="linear-gradient-78" x1="965.95" y1="86.47" x2="1171.46" y2="86.47" xlink:href="#linear-gradient-49"/>
    <linearGradient id="linear-gradient-79" x1="1066.76" y1="169.4" x2="1066.76" y2="70.04" gradientUnits="userSpaceOnUse">
      <stop offset="0" stop-color="#c7e9f9"/>
      <stop offset=".46" stop-color="#f1f9fe"/>
    </linearGradient>
    <linearGradient id="linear-gradient-80" x1="993.96" y1="93.53" x2="1129.07" y2="93.53" gradientTransform="matrix(1, 0, 0, 1, 0, 0)" xlink:href="#linear-gradient-2"/>
    <linearGradient id="linear-gradient-81" x1="1116" y1="53.57" x2="1133.59" y2="53.57" gradientTransform="translate(367.32 -779.66) rotate(45)" xlink:href="#linear-gradient-2"/>
    <linearGradient id="linear-gradient-82" x1="1427.25" y1="528.25" x2="1534.42" y2="528.25" gradientTransform="matrix(1, 0, 0, 1, 0, 0)" xlink:href="#linear-gradient-3"/>
    <linearGradient id="linear-gradient-83" x1="624.08" y1="836.04" x2="357.85" y2="569.82" gradientTransform="matrix(1, 0, 0, 1, 0, 0)" xlink:href="#linear-gradient-3"/>
    <linearGradient id="linear-gradient-84" x1="648.37" y1="903.12" x2="381.8" y2="636.55" gradientTransform="matrix(1, 0, 0, 1, 0, 0)" xlink:href="#linear-gradient-3"/>
    <linearGradient id="linear-gradient-85" x1="622.7" y1="970.38" x2="356.14" y2="703.81" gradientTransform="matrix(1, 0, 0, 1, 0, 0)" xlink:href="#linear-gradient-3"/>
    <linearGradient id="linear-gradient-86" x1="622.7" y1="1037.57" x2="356.14" y2="771.01" gradientTransform="matrix(1, 0, 0, 1, 0, 0)" xlink:href="#linear-gradient-3"/>
    <linearGradient id="linear-gradient-87" x1="393.66" y1="198.36" x2="562.84" y2="198.36" xlink:href="#linear-gradient-26"/>
    <linearGradient id="linear-gradient-88" x1="393.66" y1="194.9" x2="562.84" y2="194.9" xlink:href="#linear-gradient-26"/>
    <linearGradient id="linear-gradient-89" x1="1098.4" y1="712.62" x2="1206.23" y2="712.62" xlink:href="#linear-gradient-28"/>
    <linearGradient id="linear-gradient-90" x1="765.25" y1="801.37" x2="873.08" y2="801.37" xlink:href="#linear-gradient-28"/>
    <linearGradient id="linear-gradient-91" x1="-2696.07" y1="405.84" x2="-2587.38" y2="405.84" gradientTransform="translate(-2484.2) rotate(-180) scale(1 -1)" xlink:href="#linear-gradient-54"/>
    <linearGradient id="linear-gradient-92" x1="-2803.95" y1="693.22" x2="-2611.98" y2="693.22" gradientTransform="translate(-2484.2) rotate(-180) scale(1 -1)" gradientUnits="userSpaceOnUse">
      <stop offset="0" stop-color="#3a3c63"/>
      <stop offset="1" stop-color="#40447b"/>
    </linearGradient>
    <linearGradient id="linear-gradient-93" x1="-2778.75" y1="948.65" x2="-2782.22" y2="895.27" xlink:href="#linear-gradient-92"/>
    <linearGradient id="linear-gradient-94" x1="-2609.82" y1="960.09" x2="-2611.22" y2="903.3" xlink:href="#linear-gradient-92"/>
    <linearGradient id="linear-gradient-95" x1="-2825.52" y1="405.74" x2="-2600.32" y2="405.74" gradientTransform="translate(-2484.2) rotate(-180) scale(1 -1)" xlink:href="#linear-gradient-54"/>
    <linearGradient id="linear-gradient-96" x1="-2617.83" y1="385.8" x2="-2587.2" y2="391.08" xlink:href="#linear-gradient-92"/>
    <linearGradient id="linear-gradient-97" x1="-2586.05" y1="352.09" x2="-2484.2" y2="352.09" xlink:href="#linear-gradient-92"/>
  </defs>
  <g class="cls-115">
    <g id="Layer_2" data-name="Layer 2">
      <g id="Layer_1-2" data-name="Layer 1">
        <g>
          <g>
            <g>
              <path class="cls-1" d="M1637.12,824.36c4.38,7.35,13.82,2.2,13.82,2.2,0,0-.54-2.42-4.78-4.44-3.16-1.51-7.7-.26-9.31,.27l-5.21-.12h-.08c-1.16,.05-2.31,.14-3.45,.24,14.85-4.77,7.85-20.73,7.85-20.73,0,0-4.66,.17-9.6,6.16-3.96,4.8-2.41,12.96-1.94,14.96-5.93,.77-11.65,2.14-17.11,3.93,.71-.62,1.43-1.32,2.16-2.12,5.66-6.17,3.16-17.86,3.16-17.86-20.27,2.37-16.24,19.72-15.03,23.7-6.63,2.9-12.77,6.33-18.33,9.92,1.43-1.79,2.92-4.37,4-8.03,2.56-8.68-6.03-19.49-6.03-19.49-19.87,11.38-5.58,27.82-2.77,30.75-3.57,2.5-6.84,5.03-9.79,7.45-3.23,2.66-6.21,5.32-8.92,7.87,.99-2.42,1.82-6.24,1.02-11.72-1.42-9.74-15.08-17.38-15.08-17.38-14.48,18.65,6.24,29.71,11.09,31.96-9.21,9.08-14.53,16.21-14.6,16.31l1.79,1.1c.06-.08,3.54-4.74,9.73-11.3,7.67,22.11,34.09,10.87,34.09,10.87,0,0-.66-6.03-10.45-11.95-6.31-3.81-15.72-2.82-20.78-1.89,3.8-3.85,8.36-8.14,13.59-12.44,1.72-1.42,3.56-2.87,5.5-4.33,6.8,20.86,31.33,10.43,31.33,10.43,0,0-.6-5.52-9.55-10.93-5.63-3.4-13.96-2.62-18.66-1.79,5.67-4.05,12.13-8.07,19.21-11.54,4.2,19.72,27.28,11.77,27.28,11.77,0,0-.13-4.95-7.7-10.32-4.96-3.51-12.84-3.17-16.98-2.68,7.65-3.52,15.99-6.35,24.82-7.85-.37,17.89,20.93,14.43,20.93,14.43,0,0,.75-4.19-4.7-9.8-4.24-4.37-12.93-4.74-15.5-4.75,3.1-.5,6.26-.84,9.48-.99l5.49,.13Z"/>
              <g>
                <g>
                  <path class="cls-23" d="M1465.08,930.71s-44.2-90.77-12.22-175.12,109.21-108.99,109.21-108.99c0,0-45.84,48.29-19.23,123.61,25.17,71.23-22.83,160.5-22.83,160.5h-54.94Z"/>
                  <path class="cls-7" d="M1480.72,930.71s-11.32-184.67,36.57-233.24c-43.56,61.22-25.42,233.24-25.42,233.24h-11.15Z"/>
                </g>
                <path class="cls-21" d="M1556.65,930.71h-47.28c1.88-7.58,8.69-30.47,25.65-47.74,20.62-20.98,46.62-18.95,46.62-18.95,0,0-14.15,14.12-16.32,39.49-.86,10.11-4.63,19.59-8.68,27.2Z"/>
                <path class="cls-7" d="M1524.7,930.71h-3.54c6.73-14.02,23.9-46.88,39.98-53.56-15.72,9.59-30.19,39.32-36.43,53.56Z"/>
                <path class="cls-22" d="M1447.33,830.31c34.42,40.82,42.14,94.05,42.95,100.4h-66.91c-16.93-14.22-37.69-37.22-37.85-64.88-.29-49.4-25.49-78.69-25.49-78.69,0,0,50.64-.31,87.3,43.17Z"/>
                <path class="cls-7" d="M1469.14,930.71h-6.95c-8.15-24.51-33.05-92.77-64.49-115.3,32.46,16.37,62.79,92.13,71.43,115.3Z"/>
              </g>
            </g>
            <rect class="cls-14" x="1384.69" y="930.71" width="199.5" height="7.2" transform="translate(2968.88 1868.63) rotate(180)"/>
          </g>
          <g>
            <g class="cls-18">
              <rect class="cls-6" x="1254.78" y="211.91" width="205.56" height="172.99" rx="16.01" ry="16.01"/>
              <rect class="cls-26" x="1253.95" y="210.87" width="205.56" height="172.99" rx="16.01" ry="16.01"/>
              <rect class="cls-24" x="1253.11" y="209.82" width="205.56" height="172.99" rx="16.01" ry="16.01"/>
              <rect class="cls-25" x="1252.28" y="208.78" width="205.56" height="172.99" rx="16.01" ry="16.01"/>
              <rect class="cls-19" x="1251.45" y="207.73" width="205.56" height="172.99" rx="16.01" ry="16.01"/>
              <rect class="cls-20" x="1250.61" y="206.69" width="205.56" height="172.99" rx="16.01" ry="16.01"/>
              <rect class="cls-97" x="1249.78" y="205.64" width="205.56" height="172.99" rx="16.01" ry="16.01"/>
              <rect class="cls-98" x="1248.94" y="204.6" width="205.56" height="172.99" rx="16.01" ry="16.01"/>
              <rect class="cls-96" x="1248.11" y="203.56" width="205.56" height="172.99" rx="16.01" ry="16.01"/>
              <rect class="cls-95" x="1247.27" y="202.51" width="205.56" height="172.99" rx="16.01" ry="16.01"/>
              <rect class="cls-85" x="1246.44" y="201.47" width="205.56" height="172.99" rx="16.01" ry="16.01"/>
              <rect class="cls-91" x="1245.6" y="200.42" width="205.56" height="172.99" rx="16.01" ry="16.01"/>
              <rect class="cls-93" x="1244.77" y="199.38" width="205.56" height="172.99" rx="16.01" ry="16.01"/>
              <rect class="cls-94" x="1243.93" y="198.33" width="205.56" height="172.99" rx="16.01" ry="16.01"/>
              <rect class="cls-86" x="1243.1" y="197.29" width="205.56" height="172.99" rx="16.01" ry="16.01"/>
              <rect class="cls-92" x="1242.26" y="196.24" width="205.56" height="172.99" rx="16.01" ry="16.01"/>
              <rect class="cls-88" x="1241.43" y="195.2" width="205.56" height="172.99" rx="16.01" ry="16.01"/>
              <rect class="cls-89" x="1240.59" y="194.15" width="205.56" height="172.99" rx="16.01" ry="16.01"/>
              <rect class="cls-87" x="1239.76" y="193.11" width="205.56" height="172.99" rx="16.01" ry="16.01"/>
              <rect class="cls-90" x="1238.92" y="192.06" width="205.56" height="172.99" rx="16.01" ry="16.01"/>
              <rect class="cls-100" x="1238.09" y="191.02" width="205.56" height="172.99" rx="16.01" ry="16.01"/>
              <rect class="cls-108" x="1237.25" y="189.98" width="205.56" height="172.99" rx="16.01" ry="16.01"/>
            </g>
            <rect class="cls-6" x="1237.25" y="189.98" width="205.56" height="172.99" rx="16.01" ry="16.01"/>
            <g>
              <path class="cls-101" d="M1392.55,218.97c-11.55-13.08-28.44-21.34-47.27-21.34v63.03l47.27-41.69Z"/>
              <path class="cls-99" d="M1340.03,203.13c-39.25,0-71.07,31.82-71.07,71.07s31.82,71.07,71.07,71.07V203.13Z"/>
              <path class="cls-109" d="M1411.11,274.2c0-18.03-6.72-34.48-17.78-47.01l-53.3,47.01v71.07c39.25,0,71.07-31.82,71.07-71.07Z"/>
            </g>
          </g>
          <g>
            <g class="cls-18">
              <path class="cls-6" d="M717.18,211.91h173.5c8.83,0,16,7.17,16,16v140.94c0,8.83-7.17,16-16,16h-173.5c-8.83,0-16-7.17-16-16V227.91c0-8.83,7.17-16,16-16Z"/>
              <rect class="cls-110" x="700.34" y="210.86" width="205.5" height="172.94" rx="16" ry="16"/>
              <rect class="cls-112" x="699.51" y="209.82" width="205.5" height="172.94" rx="16" ry="16"/>
              <rect class="cls-114" x="698.67" y="208.77" width="205.5" height="172.94" rx="16" ry="16"/>
              <rect class="cls-113" x="697.84" y="207.73" width="205.5" height="172.94" rx="16" ry="16"/>
              <rect class="cls-111" x="697" y="206.68" width="205.5" height="172.94" rx="16" ry="16"/>
              <rect class="cls-105" x="696.17" y="205.64" width="205.5" height="172.94" rx="16" ry="16"/>
              <rect class="cls-103" x="695.33" y="204.6" width="205.5" height="172.94" rx="16" ry="16"/>
              <rect class="cls-107" x="694.5" y="203.55" width="205.5" height="172.94" rx="16" ry="16"/>
              <rect class="cls-104" x="693.67" y="202.51" width="205.5" height="172.94" rx="16" ry="16"/>
              <rect class="cls-102" x="692.83" y="201.46" width="205.5" height="172.94" rx="16" ry="16"/>
              <rect class="cls-106" x="692" y="200.42" width="205.5" height="172.94" rx="16" ry="16"/>
              <rect class="cls-76" x="691.16" y="199.37" width="205.5" height="172.94" rx="16" ry="16"/>
              <rect class="cls-75" x="690.33" y="198.33" width="205.5" height="172.94" rx="16" ry="16"/>
              <rect class="cls-78" x="689.49" y="197.29" width="205.5" height="172.94" rx="16" ry="16"/>
              <rect class="cls-77" x="688.66" y="196.24" width="205.5" height="172.94" rx="16" ry="16"/>
              <rect class="cls-81" x="687.82" y="195.2" width="205.5" height="172.94" rx="16" ry="16"/>
              <rect class="cls-79" x="686.99" y="194.15" width="205.5" height="172.94" rx="16" ry="16"/>
              <rect class="cls-80" x="686.15" y="193.11" width="205.5" height="172.94" rx="16" ry="16"/>
              <rect class="cls-83" x="685.32" y="192.06" width="205.5" height="172.94" rx="16" ry="16"/>
              <rect class="cls-84" x="684.49" y="191.02" width="205.5" height="172.94" rx="16" ry="16"/>
              <rect class="cls-82" x="683.65" y="189.98" width="205.5" height="172.94" rx="16" ry="16"/>
            </g>
            <rect class="cls-6" x="683.65" y="189.98" width="205.5" height="172.94" rx="16" ry="16"/>
            <g>
              <rect class="cls-36" x="797.03" y="222.14" width="23.62" height="119.63"/>
              <rect class="cls-34" x="752.16" y="222.14" width="23.62" height="119.63"/>
              <rect class="cls-35" x="841.9" y="222.14" width="23.62" height="119.63"/>
              <rect class="cls-32" x="707.29" y="222.14" width="23.62" height="119.63"/>
            </g>
            <g>
              <rect class="cls-33" x="797.03" y="246.37" width="23.62" height="95.41"/>
              <rect class="cls-30" x="752.16" y="263.17" width="23.62" height="78.6"/>
              <rect class="cls-31" x="707.29" y="281.96" width="23.62" height="59.82"/>
              <rect class="cls-28" x="841.9" y="222.15" width="23.62" height="119.63"/>
            </g>
          </g>
          <g>
            <g class="cls-18">
              <path class="cls-6" d="M999.48,21.93h173.5c8.83,0,16,7.17,16,16V178.87c0,8.83-7.17,16-16,16h-173.5c-8.83,0-16-7.17-16-16V37.93c0-8.83,7.17-16,16-16Z"/>
              <rect class="cls-29" x="982.65" y="20.89" width="205.5" height="172.94" rx="16" ry="16"/>
              <rect class="cls-27" x="981.81" y="19.84" width="205.5" height="172.94" rx="16" ry="16"/>
              <rect class="cls-54" x="980.98" y="18.8" width="205.5" height="172.94" rx="16" ry="16"/>
              <rect class="cls-56" x="980.14" y="17.75" width="205.5" height="172.94" rx="16" ry="16"/>
              <rect class="cls-55" x="979.31" y="16.71" width="205.5" height="172.94" rx="16" ry="16"/>
              <rect class="cls-51" x="978.47" y="15.66" width="205.5" height="172.94" rx="16" ry="16"/>
              <rect class="cls-50" x="977.64" y="14.62" width="205.5" height="172.94" rx="16" ry="16"/>
              <rect class="cls-53" x="976.8" y="13.58" width="205.5" height="172.94" rx="16" ry="16"/>
              <rect class="cls-52" x="975.97" y="12.53" width="205.5" height="172.94" rx="16" ry="16"/>
              <rect class="cls-48" x="975.13" y="11.49" width="205.5" height="172.94" rx="16" ry="16"/>
              <rect class="cls-47" x="974.3" y="10.44" width="205.5" height="172.94" rx="16" ry="16"/>
              <rect class="cls-49" x="973.47" y="9.4" width="205.5" height="172.94" rx="16" ry="16"/>
              <rect class="cls-43" x="972.63" y="8.35" width="205.5" height="172.94" rx="16" ry="16"/>
              <rect class="cls-44" x="971.8" y="7.31" width="205.5" height="172.94" rx="16" ry="16"/>
              <rect class="cls-45" x="970.96" y="6.27" width="205.5" height="172.94" rx="16" ry="16"/>
              <rect class="cls-46" x="970.13" y="5.22" width="205.5" height="172.94" rx="16" ry="16"/>
              <rect class="cls-40" x="969.29" y="4.18" width="205.5" height="172.94" rx="16" ry="16"/>
              <rect class="cls-41" x="968.46" y="3.13" width="205.5" height="172.94" rx="16" ry="16"/>
              <rect class="cls-42" x="967.62" y="2.09" width="205.5" height="172.94" rx="16" ry="16"/>
              <rect class="cls-37" x="966.79" y="1.04" width="205.5" height="172.94" rx="16" ry="16"/>
              <rect class="cls-38" x="965.95" y="0" width="205.5" height="172.94" rx="16" ry="16"/>
            </g>
            <rect class="cls-6" x="965.95" y="0" width="205.5" height="172.94" rx="16" ry="16"/>
            <rect class="cls-39" x="985.41" y="26.66" width="162.69" height="119.63" rx="6.57" ry="6.57"/>
            <path class="cls-66" d="M997.67,134.5l-3.71-4.38,12.17-10.33c3.59-3.05,7.31-6.2,11.76-8.42,5.25-2.61,10.72-3.35,15.41-2.08,3.35,.91,6.11,2.72,8.79,4.48,1.87,1.23,3.64,2.39,5.51,3.18,6.73,2.84,15.64,.86,22.71-5.06,6.63-5.54,11.17-13.51,15.55-21.21l.07-.13c5.73-10.05,12.85-22.56,23.28-31.6,6.95-6.02,14.19-7.91,19.87-5.18l-2.49,5.17c-5.13-2.47-11.72,2.7-13.62,4.34-9.69,8.4-16.54,20.43-22.05,30.1l-.07,.13c-4.64,8.15-9.44,16.57-16.86,22.77-8.71,7.28-19.95,9.61-28.63,5.94-2.35-.99-4.42-2.35-6.42-3.67-2.41-1.58-4.68-3.07-7.14-3.74-3.33-.9-7.36-.31-11.35,1.67-3.83,1.91-7.27,4.83-10.61,7.66l-12.17,10.33Z"/>
            <g>
              <circle class="cls-65" cx="1124.8" cy="53.57" r="8.8" transform="translate(291.57 811.04) rotate(-45)"/>
              <circle class="cls-6" cx="1124.8" cy="53.57" r="2.79"/>
            </g>
          </g>
          <path class="cls-74" d="M1528.97,520.53h-8.23c-2.37,0-4.43-1.55-5.18-3.8-.56-1.69-1.25-3.33-2.05-4.91-1.06-2.1-.71-4.63,.95-6.29l6.23-6.23c1.93-1.93,1.93-5.05,0-6.98l-3.56-3.56c-2.13-2.13-5.58-2.13-7.71,0l-5.87,5.87c-1.66,1.66-4.19,2.01-6.29,.95-1.57-.8-3.21-1.48-4.91-2.04-2.25-.75-3.8-2.81-3.8-5.18v-8.23c0-3.01-2.44-5.45-5.45-5.45h-4.52c-3.01,0-5.45,2.44-5.45,5.45v8.23c0,2.37-1.55,4.43-3.8,5.18-1.69,.56-3.33,1.25-4.91,2.04-2.1,1.06-4.63,.71-6.29-.95l-5.86-5.86c-2.13-2.13-5.58-2.13-7.71,0l-3.56,3.56c-1.93,1.93-1.93,5.05,0,6.98l6.23,6.23c1.66,1.66,2.01,4.19,.95,6.29-.8,1.57-1.48,3.21-2.05,4.91-.75,2.25-2.81,3.8-5.18,3.8h-8.23c-3.01,0-5.45,2.44-5.45,5.45v4.52c0,3.01,2.44,5.45,5.45,5.45h8.23c2.37,0,4.43,1.55,5.18,3.8,.56,1.69,1.25,3.33,2.05,4.91,1.06,2.1,.71,4.63-.95,6.29l-6.23,6.23c-1.93,1.93-1.93,5.05,0,6.98l3.56,3.56c2.13,2.13,5.58,2.13,7.71,0l5.86-5.86c1.66-1.66,4.2-2.01,6.29-.95,1.57,.8,3.21,1.48,4.91,2.05,2.25,.75,3.8,2.81,3.8,5.18v8.23c0,3.01,2.44,5.45,5.45,5.45h4.52c3.01,0,5.45-2.44,5.45-5.45v-8.23c0-2.37,1.55-4.43,3.8-5.18,1.7-.56,3.34-1.25,4.91-2.05,2.1-1.06,4.63-.71,6.29,.95l5.87,5.87c2.13,2.13,5.58,2.13,7.71,0l3.56-3.56c1.93-1.93,1.93-5.05,0-6.98l-6.23-6.23c-1.66-1.66-2.01-4.2-.95-6.29,.8-1.58,1.48-3.21,2.05-4.91,.75-2.25,2.81-3.8,5.18-3.8h8.23c3.01,0,5.45-2.44,5.45-5.45v-4.52c0-3.01-2.44-5.45-5.45-5.45Zm-29.24,9.25c-.72,9.19-8.16,16.64-17.35,17.36-11.68,.93-21.36-8.75-20.44-20.44,.72-9.19,8.16-16.63,17.35-17.36,11.68-.93,21.36,8.75,20.44,20.43Z"/>
          <g>
            <g>
              <rect class="cls-73" x="258.02" y="669.65" width="465.89" height="66.56"/>
              <rect class="cls-9" x="404.57" y="669.64" width="172.79" height="66.57"/>
              <rect class="cls-4" x="410.58" y="669.64" width="160.78" height="66.57"/>
            </g>
            <g>
              <g>
                <rect class="cls-72" x="282.14" y="736.22" width="465.89" height="67.24"/>
                <rect class="cls-9" x="428.69" y="736.21" width="172.79" height="67.25"/>
                <rect class="cls-4" x="434.7" y="736.21" width="160.78" height="67.25"/>
              </g>
              <rect class="cls-17" x="282.42" y="736.16" width="465.32" height="8.58"/>
            </g>
            <g>
              <g>
                <rect class="cls-71" x="256.48" y="803.47" width="465.89" height="67.24"/>
                <rect class="cls-9" x="403.03" y="803.47" width="172.79" height="67.25"/>
                <rect class="cls-4" x="409.03" y="803.47" width="160.78" height="67.25"/>
              </g>
              <rect class="cls-17" x="256.76" y="803.42" width="465.32" height="8.58"/>
            </g>
            <g>
              <g>
                <rect class="cls-70" x="256.48" y="870.67" width="465.89" height="67.24"/>
                <rect class="cls-9" x="403.03" y="870.66" width="172.79" height="67.25"/>
                <rect class="cls-4" x="409.03" y="870.66" width="160.78" height="67.25"/>
              </g>
              <rect class="cls-17" x="256.76" y="870.62" width="465.32" height="8.58"/>
            </g>
          </g>
          <g>
            <polygon class="cls-6" points="730.24 88.21 719.81 93.69 730.59 99.81 736.72 110.59 742.19 100.16 752.62 94.69 741.84 88.56 735.72 77.78 730.24 88.21"/>
            <polygon class="cls-6" points="748.31 124.94 741.74 128.38 748.53 132.24 752.38 139.02 755.83 132.46 762.39 129.01 755.61 125.16 751.75 118.37 748.31 124.94"/>
            <polygon class="cls-6" points="709.41 115.23 699.42 120.48 709.75 126.35 715.62 136.69 720.87 126.69 730.87 121.44 720.53 115.57 714.66 105.23 709.41 115.23"/>
          </g>
          <g>
            <path class="cls-15" d="M375.16,86.54c-8.7-3.07-15.98-3.61-21.07,3.54-14.12,19.77,45.87,90.06,45.87,90.06,0,0,52.96,7.33,97.22,9.34-36.89-4.32-65.84-8.99-65.84-8.99,0,0-36.91-50.42-56.18-93.95Z"/>
            <path class="cls-14" d="M556.24,181.24c1.51-20.32,44.36-79.08,26.72-103.24-17.64-24.16-51.92,26.91-79.15,1.1s-41.34,8.24-73.1,19.22c-20.29,7.02-40.16-6.35-55.55-11.77,19.26,43.53,56.18,93.95,56.18,93.95,0,0,28.95,4.67,65.84,8.99,31.4,1.43,58.43,.19,59.06-8.24Z"/>
            <path class="cls-14" d="M697.98,570.54c-9.64-89.9-75.75-281.5-125.98-343.49l-.57,1.63h-166.25s-69.82,211.23-82.35,277.07c-12.31,64.68,3.85,141.83,50.8,158.6,33.45,11.95,159.47,5.84,229.19,12.18,8.18-1.16,16.27-3.15,24.17-6.03,31.12-11.35,77.57-38.71,71-99.97Z"/>
            <path class="cls-15" d="M322.83,505.75c9.65-50.69,53.25-187.54,72.81-247.85,5.67-17.47,21.45-29.22,39.22-29.22h136.58l.57-1.63c-.66-.82-1.32-1.63-1.98-2.4-13.78-16.19-78.44-15.3-90.75-14.98-.69,.02-1.33,.02-2.02,0-3.69-.1-12.13-.24-22.49,.04-24.1,.65-58.64,3.61-68.28,14.94-50.45,59.3-118.19,254.8-127.96,345.89-6.57,61.25,39.88,88.62,71,99.97,13.36,4.87,27.27,7.26,41.25,7.26h214.95c5.72,0,11.42-.42,17.09-1.23-69.72-6.35-195.74-.24-229.19-12.18-46.95-16.77-63.11-93.92-50.8-158.6Z"/>
            <path class="cls-69" d="M553.38,178.01h-150.24c-5.23,0-9.47,5.42-9.47,12.1v16.49c0,6.68,4.24,12.1,9.47,12.1h150.24c5.23,0,9.47-5.42,9.47-12.1v-16.49c0-6.68-4.24-12.1-9.47-12.1Z"/>
            <path class="cls-18" d="M553.38,178.01h-150.24c-5.23,0-9.47,5.42-9.47,12.1v16.49c0,6.68,4.24,12.1,9.47,12.1h150.24c5.23,0,9.47-5.42,9.47-12.1v-16.49c0-6.68-4.24-12.1-9.47-12.1Z"/>
            <path class="cls-67" d="M553.38,178.01h-150.24c-5.23,0-9.47,4.5-9.47,10.04v13.69c0,5.55,4.24,10.04,9.47,10.04h150.24c5.23,0,9.47-4.5,9.47-10.04v-13.69c0-5.55-4.24-10.04-9.47-10.04Z"/>
            <path class="cls-10" d="M556.14,466.5c.31,8.22-.81,15.69-3.36,22.4-2.56,6.71-6.33,12.57-11.3,17.56-4.98,4.99-11.05,9.07-18.22,12.24-7.17,3.17-15.16,5.32-23.98,6.45l-1.73,30.81c-.06,.77-.25,1.45-.54,2.03-.3,.59-.88,1.09-1.74,1.51-.86,.42-2.05,.78-3.56,1.08-1.51,.3-3.42,.5-5.72,.6-2.95,.12-5.33,.08-7.13-.14-1.81-.21-3.23-.56-4.26-1.04-1.03-.48-1.73-1.15-2.08-2-.36-.85-.46-1.8-.32-2.86l1.79-29.23c-3.99-.41-7.75-1-11.28-1.76-3.54-.76-6.76-1.63-9.65-2.62-2.9-.98-5.41-2-7.52-3.07-2.12-1.06-3.73-2.12-4.83-3.18-1.1-1.05-1.92-2.65-2.47-4.78-.54-2.13-.9-5.3-1.06-9.51-.12-3.25-.14-5.93-.03-8.04,.1-2.11,.36-3.75,.78-4.92,.42-1.17,.96-1.98,1.64-2.44,.67-.46,1.47-.71,2.39-.75,1.2-.05,2.98,.6,5.33,1.93,2.36,1.34,5.37,2.79,9.03,4.37,3.66,1.57,8.07,2.97,13.24,4.19,5.17,1.22,11.21,1.69,18.12,1.41,10.78-.44,18.72-2.85,23.81-7.23,5.09-4.38,7.51-10,7.24-16.89-.18-4.59-1.45-8.32-3.82-11.19-2.37-2.87-5.49-5.35-9.35-7.44-3.87-2.09-8.2-3.92-13.02-5.5-4.81-1.57-9.75-3.26-14.8-5.06-5.05-1.8-10-3.94-14.85-6.43-4.85-2.48-9.24-5.6-13.17-9.37-3.93-3.76-7.13-8.4-9.6-13.9-2.47-5.5-3.86-12.21-4.16-20.15-.27-7.17,.63-13.74,2.71-19.72,2.08-5.97,5.2-11.25,9.36-15.83,4.16-4.57,9.35-8.36,15.56-11.34,6.21-2.98,13.3-5.12,21.28-6.41l1.66-28.94c.06-.77,.24-1.42,.55-1.96,.3-.54,.88-1.04,1.74-1.51,.86-.47,2.02-.82,3.49-1.08,1.47-.25,3.4-.43,5.79-.53,2.86-.12,5.23-.07,7.14,.14,1.9,.21,3.37,.56,4.4,1.04,1.03,.48,1.71,1.15,2.02,2,.31,.85,.48,1.8,.52,2.85l-1.73,27.22c2.59,.28,5.33,.69,8.22,1.24,2.88,.55,5.59,1.23,8.11,2.04,2.52,.81,4.82,1.67,6.88,2.59,2.06,.92,3.5,1.77,4.32,2.55,.81,.78,1.44,1.57,1.89,2.36,.45,.79,.81,1.79,1.08,2.97,.27,1.19,.49,2.62,.65,4.28,.15,1.67,.28,3.6,.36,5.8,.11,2.96,.14,5.41,.07,7.32-.06,1.92-.26,3.39-.59,4.41-.33,1.02-.72,1.71-1.17,2.06-.45,.35-1,.54-1.64,.57-1.2,.05-2.97-.5-5.32-1.65-2.35-1.15-5.24-2.37-8.66-3.66-3.42-1.3-7.34-2.47-11.76-3.54-4.43-1.06-9.26-1.49-14.52-1.27-4.79,.2-8.88,.85-12.25,1.94-3.37,1.1-6.09,2.55-8.14,4.36-2.06,1.81-3.54,3.93-4.46,6.36-.92,2.43-1.33,5.08-1.22,7.95,.17,4.5,1.47,8.22,3.89,11.19,2.42,2.97,5.58,5.47,9.49,7.51,3.91,2.04,8.32,3.87,13.22,5.49,4.91,1.62,9.91,3.33,15.01,5.13,5.1,1.8,10.12,3.92,15.06,6.34,4.94,2.43,9.37,5.5,13.3,9.22,3.93,3.72,7.15,8.28,9.66,13.68,2.51,5.4,3.92,11.97,4.22,19.72Z"/>
          </g>
          <g>
            <rect class="cls-68" x="1098.4" y="502.33" width="107.83" height="420.59"/>
            <rect class="cls-14" x="931.83" y="579.05" width="107.83" height="358.87"/>
            <rect class="cls-64" x="765.25" y="664.83" width="107.83" height="273.09"/>
            <rect class="cls-14" x="1264.97" y="391.74" width="107.83" height="534.18"/>
            <polygon class="cls-14" points="1202.76 259.39 1107.01 285.04 1127.31 305.35 989.68 442.97 907.05 442.97 753.97 596.05 782.91 624.99 924 483.9 1006.63 483.9 1156.25 334.28 1177.1 355.14 1202.76 259.39"/>
          </g>
          <g>
            <g>
              <path class="cls-11" d="M1437.82,890.62c0,4.01-3.18,7.85-8.91,11.38-1.94,1.2-4.15,2.36-6.66,3.48-1.07,.48-2.18,.94-3.34,1.4-5.07,2-11.08,3.86-17.83,5.53-7.81,1.94-16.63,3.64-26.29,5.04-2.18,.32-4.4,.61-6.66,.9-1.11,.14-2.22,.28-3.34,.41-5.72,.68-11.68,1.25-17.83,1.72-8.43,.64-17.22,1.09-26.29,1.31-2.2,.05-4.42,.09-6.66,.12-1.11,.01-2.23,.02-3.34,.02-.99,0-1.97,.02-2.97,.02-5.03,0-9.98-.07-14.86-.2-9.08-.24-17.87-.71-26.29-1.38-2.25-.18-4.47-.37-6.66-.58-1.12-.11-2.24-.21-3.34-.32-6.21-.64-12.16-1.39-17.83-2.24-9.7-1.46-18.53-3.21-26.29-5.21-2.32-.6-4.54-1.22-6.66-1.86-1.14-.35-2.26-.7-3.34-1.05-7.55-2.49-13.59-5.26-17.83-8.23-4.54-3.18-7.05-6.59-7.05-10.14l.02,27.11h.02c.08,3.49,2.56,6.84,7.02,9.96,4.24,2.97,10.28,5.74,17.83,8.24,1.08,.36,2.2,.71,3.34,1.05,2.12,.64,4.34,1.26,6.66,1.86,7.76,2,16.6,3.75,26.29,5.21,5.67,.85,11.62,1.6,17.83,2.24,1.1,.11,2.22,.22,3.34,.32,2.19,.21,4.41,.4,6.66,.58,8.42,.67,17.21,1.14,26.29,1.38,4.89,.13,9.84,.21,14.88,.2,.99,0,1.97-.01,2.95-.02,1.12,0,2.24,0,3.34-.02,2.24-.03,4.46-.07,6.66-.12,9.07-.22,17.86-.67,26.29-1.31,6.16-.47,12.11-1.05,17.83-1.72,1.13-.13,2.24-.27,3.34-.41,2.26-.29,4.48-.58,6.66-.9,9.66-1.4,18.48-3.11,26.29-5.05,6.76-1.68,12.76-3.53,17.83-5.53,1.17-.46,2.28-.93,3.34-1.41,2.51-1.12,4.72-2.28,6.66-3.47,5.65-3.48,8.82-7.26,8.9-11.22h.02l-.02-27.11Z"/>
              <path class="cls-18" d="M1437.82,890.62c0,4.01-3.18,7.85-8.91,11.38-1.94,1.2-4.15,2.36-6.66,3.48-1.07,.48-2.18,.94-3.34,1.4-5.07,2-11.08,3.86-17.83,5.53-7.81,1.94-16.63,3.64-26.29,5.04-2.18,.32-4.4,.61-6.66,.9-1.11,.14-2.22,.28-3.34,.41-5.72,.68-11.68,1.25-17.83,1.72-8.43,.64-17.22,1.09-26.29,1.31-2.2,.05-4.42,.09-6.66,.12-1.11,.01-2.23,.02-3.34,.02-.99,0-1.97,.02-2.97,.02-5.03,0-9.98-.07-14.86-.2-9.08-.24-17.87-.71-26.29-1.38-2.25-.18-4.47-.37-6.66-.58-1.12-.11-2.24-.21-3.34-.32-6.21-.64-12.16-1.39-17.83-2.24-9.7-1.46-18.53-3.21-26.29-5.21-2.32-.6-4.54-1.22-6.66-1.86-1.14-.35-2.26-.7-3.34-1.05-7.55-2.49-13.59-5.26-17.83-8.23-4.54-3.18-7.05-6.59-7.05-10.14l.02,27.11h.02c.08,3.49,2.56,6.84,7.02,9.96,4.24,2.97,10.28,5.74,17.83,8.24,1.08,.36,2.2,.71,3.34,1.05,2.12,.64,4.34,1.26,6.66,1.86,7.76,2,16.6,3.75,26.29,5.21,5.67,.85,11.62,1.6,17.83,2.24,1.1,.11,2.22,.22,3.34,.32,2.19,.21,4.41,.4,6.66,.58,8.42,.67,17.21,1.14,26.29,1.38,4.89,.13,9.84,.21,14.88,.2,.99,0,1.97-.01,2.95-.02,1.12,0,2.24,0,3.34-.02,2.24-.03,4.46-.07,6.66-.12,9.07-.22,17.86-.67,26.29-1.31,6.16-.47,12.11-1.05,17.83-1.72,1.13-.13,2.24-.27,3.34-.41,2.26-.29,4.48-.58,6.66-.9,9.66-1.4,18.48-3.11,26.29-5.05,6.76-1.68,12.76-3.53,17.83-5.53,1.17-.46,2.28-.93,3.34-1.41,2.51-1.12,4.72-2.28,6.66-3.47,5.65-3.48,8.82-7.26,8.9-11.22h.02l-.02-27.11Z"/>
              <ellipse class="cls-11" cx="1307.68" cy="887.27" rx="130.15" ry="31.28"/>
              <path class="cls-11" d="M1307.67,867.97c60.65-.03,110.36,9.23,115.12,21.04,.25-.61,.41-1.23,.41-1.86,0-12.67-51.73-22.92-115.53-22.89-63.8,.03-115.51,10.33-115.5,23,0,.62,.16,1.24,.41,1.85,4.76-11.8,54.45-21.11,115.09-21.14Z"/>
              <path class="cls-16" d="M1307.67,867.97c60.65-.03,110.36,9.23,115.12,21.04,.25-.61,.41-1.23,.41-1.86,0-12.67-51.73-22.92-115.53-22.89-63.8,.03-115.51,10.33-115.5,23,0,.62,.16,1.24,.41,1.85,4.76-11.8,54.45-21.11,115.09-21.14Z"/>
              <path class="cls-8" d="M1307.69,910.15c60.64-.03,110.33-9.33,115.09-21.14-4.76-11.8-54.46-21.06-115.12-21.04-60.64,.03-110.33,9.34-115.09,21.14,4.76,11.8,54.46,21.06,115.12,21.04Z"/>
              <g>
                <g>
                  <path class="cls-11" d="M1177.52,887.39l.02,27.11h.02c.08,3.49,2.56,6.84,7.02,9.96v-26.93c-4.54-3.18-7.05-6.59-7.05-10.14Z"/>
                  <path class="cls-11" d="M1310.66,945.54c1.12,0,2.24,0,3.34-.02v-26.95c-1.11,.01-2.23,.02-3.34,.02v26.95Z"/>
                  <path class="cls-11" d="M1256.53,943.07c1.1,.11,2.22,.22,3.34,.32v-26.95c-1.12-.11-2.24-.21-3.34-.32v26.95Z"/>
                  <path class="cls-11" d="M1202.4,932.7c1.08,.36,2.2,.71,3.34,1.05v-26.94c-1.14-.35-2.26-.7-3.34-1.05v26.94Z"/>
                  <path class="cls-11" d="M1437.82,887.27c0,4.01-3.18,7.85-8.91,11.38v26.95c5.65-3.48,8.82-7.26,8.9-11.22h.02l-.02-27.11Z"/>
                  <path class="cls-11" d="M1418.91,930.48c1.17-.46,2.28-.93,3.34-1.41v-26.95c-1.07,.48-2.18,.94-3.34,1.4v26.95Z"/>
                  <path class="cls-11" d="M1368.13,915c-1.11,.14-2.22,.28-3.34,.41-5.72,.68-11.68,1.25-17.83,1.72-8.43,.64-17.22,1.09-26.29,1.31v26.95c9.07-.22,17.86-.67,26.29-1.31,6.16-.47,12.11-1.05,17.83-1.72,1.13-.13,2.24-.27,3.34-.41,2.26-.29,4.48-.58,6.66-.9,9.66-1.4,18.48-3.11,26.29-5.05v-26.95c-7.81,1.94-16.63,3.64-26.29,5.04-2.18,.32-4.4,.61-6.66,.9Z"/>
                </g>
                <g>
                  <path class="cls-5" d="M1212.41,908.67c-2.32-.6-4.54-1.22-6.66-1.86v26.94c2.12,.64,4.34,1.26,6.66,1.86,7.76,2,16.6,3.75,26.29,5.21,5.67,.85,11.62,1.6,17.83,2.24v-26.95c-6.21-.64-12.16-1.39-17.83-2.24-9.7-1.46-18.53-3.21-26.29-5.21Z"/>
                  <path class="cls-5" d="M1184.57,924.46c4.24,2.97,10.28,5.74,17.83,8.24v-26.94c-7.55-2.49-13.59-5.26-17.83-8.23v26.93Z"/>
                  <path class="cls-5" d="M1292.83,918.41c-9.08-.24-17.87-.71-26.29-1.38-2.25-.18-4.47-.37-6.66-.58v26.95c2.19,.21,4.41,.4,6.66,.58,8.42,.67,17.21,1.14,26.29,1.38,4.89,.13,9.84,.21,14.88,.2,.99,0,1.97-.01,2.95-.02v-26.95c-.99,0-1.97,.02-2.97,.02-5.03,0-9.98-.07-14.86-.2Z"/>
                  <path class="cls-5" d="M1314,945.52c2.24-.03,4.46-.07,6.66-.12v-26.95c-2.2,.05-4.42,.09-6.66,.12v26.95Z"/>
                  <path class="cls-5" d="M1401.08,936.01c6.76-1.68,12.76-3.53,17.83-5.53v-26.95c-5.07,2-11.08,3.86-17.83,5.53v26.95Z"/>
                  <path class="cls-5" d="M1422.26,902.12v26.95c2.51-1.12,4.72-2.28,6.66-3.47v-26.95c-1.94,1.2-4.15,2.36-6.66,3.48Z"/>
                </g>
              </g>
            </g>
            <g>
              <path class="cls-11" d="M1437.82,843.28c0,4.01-3.18,7.85-8.91,11.38-1.94,1.2-4.15,2.36-6.66,3.48-1.07,.48-2.18,.94-3.34,1.4-5.07,2-11.08,3.86-17.83,5.53-7.81,1.94-16.63,3.64-26.29,5.04-2.18,.32-4.4,.61-6.66,.9-1.11,.14-2.22,.28-3.34,.41-5.72,.68-11.68,1.25-17.83,1.72-8.43,.64-17.22,1.09-26.29,1.31-2.2,.05-4.42,.09-6.66,.12-1.11,.01-2.23,.02-3.34,.02-.99,0-1.97,.02-2.97,.02-5.03,0-9.98-.07-14.86-.2-9.08-.24-17.87-.71-26.29-1.38-2.25-.18-4.47-.37-6.66-.58-1.12-.11-2.24-.21-3.34-.32-6.21-.64-12.16-1.39-17.83-2.24-9.7-1.46-18.53-3.21-26.29-5.21-2.32-.6-4.54-1.22-6.66-1.86-1.14-.35-2.26-.7-3.34-1.05-7.55-2.49-13.59-5.26-17.83-8.23-4.54-3.18-7.05-6.59-7.05-10.14l.02,27.11h.02c.08,3.49,2.56,6.84,7.02,9.96,4.24,2.97,10.28,5.75,17.83,8.24,1.08,.36,2.2,.71,3.34,1.05,2.12,.64,4.34,1.26,6.66,1.86,7.76,2,16.6,3.75,26.29,5.21,5.67,.85,11.62,1.6,17.83,2.24,1.1,.11,2.22,.22,3.34,.32,2.19,.21,4.41,.4,6.66,.58,8.42,.67,17.21,1.14,26.29,1.38,4.89,.13,9.84,.21,14.88,.2,.99,0,1.97-.01,2.95-.02,1.12,0,2.24,0,3.34-.02,2.24-.03,4.46-.07,6.66-.12,9.07-.22,17.86-.67,26.29-1.31,6.16-.47,12.11-1.05,17.83-1.72,1.13-.13,2.24-.27,3.34-.41,2.26-.29,4.48-.58,6.66-.9,9.66-1.4,18.48-3.11,26.29-5.05,6.76-1.68,12.76-3.53,17.83-5.53,1.17-.46,2.28-.93,3.34-1.41,2.51-1.12,4.72-2.28,6.66-3.47,5.65-3.48,8.82-7.26,8.9-11.22h.02l-.02-27.11Z"/>
              <path class="cls-18" d="M1437.82,843.28c0,4.01-3.18,7.85-8.91,11.38-1.94,1.2-4.15,2.36-6.66,3.48-1.07,.48-2.18,.94-3.34,1.4-5.07,2-11.08,3.86-17.83,5.53-7.81,1.94-16.63,3.64-26.29,5.04-2.18,.32-4.4,.61-6.66,.9-1.11,.14-2.22,.28-3.34,.41-5.72,.68-11.68,1.25-17.83,1.72-8.43,.64-17.22,1.09-26.29,1.31-2.2,.05-4.42,.09-6.66,.12-1.11,.01-2.23,.02-3.34,.02-.99,0-1.97,.02-2.97,.02-5.03,0-9.98-.07-14.86-.2-9.08-.24-17.87-.71-26.29-1.38-2.25-.18-4.47-.37-6.66-.58-1.12-.11-2.24-.21-3.34-.32-6.21-.64-12.16-1.39-17.83-2.24-9.7-1.46-18.53-3.21-26.29-5.21-2.32-.6-4.54-1.22-6.66-1.86-1.14-.35-2.26-.7-3.34-1.05-7.55-2.49-13.59-5.26-17.83-8.23-4.54-3.18-7.05-6.59-7.05-10.14l.02,27.11h.02c.08,3.49,2.56,6.84,7.02,9.96,4.24,2.97,10.28,5.75,17.83,8.24,1.08,.36,2.2,.71,3.34,1.05,2.12,.64,4.34,1.26,6.66,1.86,7.76,2,16.6,3.75,26.29,5.21,5.67,.85,11.62,1.6,17.83,2.24,1.1,.11,2.22,.22,3.34,.32,2.19,.21,4.41,.4,6.66,.58,8.42,.67,17.21,1.14,26.29,1.38,4.89,.13,9.84,.21,14.88,.2,.99,0,1.97-.01,2.95-.02,1.12,0,2.24,0,3.34-.02,2.24-.03,4.46-.07,6.66-.12,9.07-.22,17.86-.67,26.29-1.31,6.16-.47,12.11-1.05,17.83-1.72,1.13-.13,2.24-.27,3.34-.41,2.26-.29,4.48-.58,6.66-.9,9.66-1.4,18.48-3.11,26.29-5.05,6.76-1.68,12.76-3.53,17.83-5.53,1.17-.46,2.28-.93,3.34-1.41,2.51-1.12,4.72-2.28,6.66-3.47,5.65-3.48,8.82-7.26,8.9-11.22h.02l-.02-27.11Z"/>
              <ellipse class="cls-11" cx="1307.68" cy="839.93" rx="130.15" ry="31.28"/>
              <path class="cls-11" d="M1307.67,820.64c60.65-.03,110.36,9.23,115.12,21.04,.25-.61,.41-1.23,.41-1.86,0-12.67-51.73-22.92-115.53-22.89-63.8,.03-115.51,10.33-115.5,23,0,.62,.16,1.24,.41,1.85,4.76-11.8,54.45-21.11,115.09-21.14Z"/>
              <path class="cls-16" d="M1307.67,820.64c60.65-.03,110.36,9.23,115.12,21.04,.25-.61,.41-1.23,.41-1.86,0-12.67-51.73-22.92-115.53-22.89-63.8,.03-115.51,10.33-115.5,23,0,.62,.16,1.24,.41,1.85,4.76-11.8,54.45-21.11,115.09-21.14Z"/>
              <path class="cls-8" d="M1307.69,862.81c60.64-.03,110.33-9.33,115.09-21.14-4.76-11.8-54.46-21.06-115.12-21.04-60.64,.03-110.33,9.34-115.09,21.14,4.76,11.8,54.46,21.06,115.12,21.04Z"/>
              <g>
                <g>
                  <path class="cls-11" d="M1177.52,840.05l.02,27.11h.02c.08,3.49,2.56,6.84,7.02,9.96v-26.93c-4.54-3.18-7.05-6.59-7.05-10.14Z"/>
                  <path class="cls-11" d="M1310.66,898.2c1.12,0,2.24,0,3.34-.02v-26.95c-1.11,.01-2.23,.02-3.34,.02v26.95Z"/>
                  <path class="cls-11" d="M1256.53,895.73c1.1,.11,2.22,.22,3.34,.32v-26.95c-1.12-.11-2.24-.21-3.34-.32v26.95Z"/>
                  <path class="cls-11" d="M1202.4,885.36c1.08,.36,2.2,.71,3.34,1.05v-26.94c-1.14-.35-2.26-.7-3.34-1.05v26.94Z"/>
                  <path class="cls-11" d="M1437.82,839.93c0,4.01-3.18,7.85-8.91,11.38v26.95c5.65-3.48,8.82-7.26,8.9-11.22h.02l-.02-27.11Z"/>
                  <path class="cls-11" d="M1418.91,883.14c1.17-.46,2.28-.93,3.34-1.41v-26.95c-1.07,.48-2.18,.94-3.34,1.4v26.95Z"/>
                  <path class="cls-11" d="M1368.13,867.66c-1.11,.14-2.22,.28-3.34,.41-5.72,.68-11.68,1.25-17.83,1.72-8.43,.64-17.22,1.09-26.29,1.31v26.95c9.07-.22,17.86-.67,26.29-1.31,6.16-.47,12.11-1.05,17.83-1.72,1.13-.13,2.24-.27,3.34-.41,2.26-.29,4.48-.58,6.66-.9,9.66-1.4,18.48-3.11,26.29-5.05v-26.95c-7.81,1.94-16.63,3.64-26.29,5.04-2.18,.32-4.4,.61-6.66,.9Z"/>
                </g>
                <g>
                  <path class="cls-5" d="M1212.41,861.34c-2.32-.6-4.54-1.22-6.66-1.86v26.94c2.12,.64,4.34,1.26,6.66,1.86,7.76,2,16.6,3.75,26.29,5.21,5.67,.85,11.62,1.6,17.83,2.24v-26.95c-6.21-.64-12.16-1.39-17.83-2.24-9.7-1.46-18.53-3.21-26.29-5.21Z"/>
                  <path class="cls-5" d="M1184.57,877.13c4.24,2.97,10.28,5.75,17.83,8.24v-26.94c-7.55-2.49-13.59-5.26-17.83-8.23v26.93Z"/>
                  <path class="cls-5" d="M1292.83,871.07c-9.08-.24-17.87-.71-26.29-1.38-2.25-.18-4.47-.37-6.66-.58v26.95c2.19,.21,4.41,.4,6.66,.58,8.42,.67,17.21,1.14,26.29,1.38,4.89,.13,9.84,.21,14.88,.2,.99,0,1.97-.01,2.95-.02v-26.95c-.99,0-1.97,.02-2.97,.02-5.03,0-9.98-.07-14.86-.2Z"/>
                  <path class="cls-5" d="M1314,898.18c2.24-.03,4.46-.07,6.66-.12v-26.95c-2.2,.05-4.42,.09-6.66,.12v26.95Z"/>
                  <path class="cls-5" d="M1401.08,888.67c6.76-1.68,12.76-3.53,17.83-5.53v-26.95c-5.07,2-11.08,3.86-17.83,5.53v26.95Z"/>
                  <path class="cls-5" d="M1422.26,854.78v26.95c2.51-1.12,4.72-2.28,6.66-3.47v-26.95c-1.94,1.2-4.15,2.36-6.66,3.48Z"/>
                </g>
              </g>
            </g>
            <g>
              <path class="cls-11" d="M1437.82,795.95c0,4.01-3.18,7.85-8.91,11.38-1.94,1.2-4.15,2.36-6.66,3.48-1.07,.48-2.18,.94-3.34,1.4-5.07,2-11.08,3.86-17.83,5.53-7.81,1.94-16.63,3.64-26.29,5.04-2.18,.32-4.4,.61-6.66,.9-1.11,.14-2.22,.28-3.34,.41-5.72,.68-11.68,1.25-17.83,1.72-8.43,.64-17.22,1.09-26.29,1.31-2.2,.05-4.42,.09-6.66,.12-1.11,.01-2.23,.02-3.34,.02-.99,0-1.97,.02-2.97,.02-5.03,0-9.98-.07-14.86-.2-9.08-.24-17.87-.71-26.29-1.38-2.25-.18-4.47-.37-6.66-.58-1.12-.11-2.24-.21-3.34-.32-6.21-.64-12.16-1.39-17.83-2.24-9.7-1.46-18.53-3.21-26.29-5.21-2.32-.6-4.54-1.22-6.66-1.86-1.14-.35-2.26-.7-3.34-1.05-7.55-2.49-13.59-5.26-17.83-8.23-4.54-3.18-7.05-6.59-7.05-10.14l.02,27.11h.02c.08,3.49,2.56,6.84,7.02,9.96,4.24,2.97,10.28,5.75,17.83,8.24,1.08,.36,2.2,.71,3.34,1.05,2.12,.64,4.34,1.26,6.66,1.86,7.76,2,16.6,3.75,26.29,5.21,5.67,.85,11.62,1.6,17.83,2.24,1.1,.11,2.22,.22,3.34,.32,2.19,.21,4.41,.4,6.66,.58,8.42,.67,17.21,1.14,26.29,1.38,4.89,.13,9.84,.21,14.88,.2,.99,0,1.97-.01,2.95-.02,1.12,0,2.24,0,3.34-.02,2.24-.03,4.46-.07,6.66-.12,9.07-.22,17.86-.67,26.29-1.31,6.16-.47,12.11-1.05,17.83-1.72,1.13-.13,2.24-.27,3.34-.41,2.26-.29,4.48-.58,6.66-.9,9.66-1.4,18.48-3.11,26.29-5.05,6.76-1.68,12.76-3.53,17.83-5.53,1.17-.46,2.28-.93,3.34-1.41,2.51-1.12,4.72-2.28,6.66-3.47,5.65-3.48,8.82-7.26,8.9-11.22h.02l-.02-27.11Z"/>
              <path class="cls-18" d="M1437.82,795.95c0,4.01-3.18,7.85-8.91,11.38-1.94,1.2-4.15,2.36-6.66,3.48-1.07,.48-2.18,.94-3.34,1.4-5.07,2-11.08,3.86-17.83,5.53-7.81,1.94-16.63,3.64-26.29,5.04-2.18,.32-4.4,.61-6.66,.9-1.11,.14-2.22,.28-3.34,.41-5.72,.68-11.68,1.25-17.83,1.72-8.43,.64-17.22,1.09-26.29,1.31-2.2,.05-4.42,.09-6.66,.12-1.11,.01-2.23,.02-3.34,.02-.99,0-1.97,.02-2.97,.02-5.03,0-9.98-.07-14.86-.2-9.08-.24-17.87-.71-26.29-1.38-2.25-.18-4.47-.37-6.66-.58-1.12-.11-2.24-.21-3.34-.32-6.21-.64-12.16-1.39-17.83-2.24-9.7-1.46-18.53-3.21-26.29-5.21-2.32-.6-4.54-1.22-6.66-1.86-1.14-.35-2.26-.7-3.34-1.05-7.55-2.49-13.59-5.26-17.83-8.23-4.54-3.18-7.05-6.59-7.05-10.14l.02,27.11h.02c.08,3.49,2.56,6.84,7.02,9.96,4.24,2.97,10.28,5.75,17.83,8.24,1.08,.36,2.2,.71,3.34,1.05,2.12,.64,4.34,1.26,6.66,1.86,7.76,2,16.6,3.75,26.29,5.21,5.67,.85,11.62,1.6,17.83,2.24,1.1,.11,2.22,.22,3.34,.32,2.19,.21,4.41,.4,6.66,.58,8.42,.67,17.21,1.14,26.29,1.38,4.89,.13,9.84,.21,14.88,.2,.99,0,1.97-.01,2.95-.02,1.12,0,2.24,0,3.34-.02,2.24-.03,4.46-.07,6.66-.12,9.07-.22,17.86-.67,26.29-1.31,6.16-.47,12.11-1.05,17.83-1.72,1.13-.13,2.24-.27,3.34-.41,2.26-.29,4.48-.58,6.66-.9,9.66-1.4,18.48-3.11,26.29-5.05,6.76-1.68,12.76-3.53,17.83-5.53,1.17-.46,2.28-.93,3.34-1.41,2.51-1.12,4.72-2.28,6.66-3.47,5.65-3.48,8.82-7.26,8.9-11.22h.02l-.02-27.11Z"/>
              <ellipse class="cls-11" cx="1307.68" cy="792.59" rx="130.15" ry="31.28"/>
              <path class="cls-11" d="M1307.67,773.3c60.65-.03,110.36,9.23,115.12,21.04,.25-.61,.41-1.23,.41-1.86,0-12.67-51.73-22.92-115.53-22.89-63.8,.03-115.51,10.33-115.5,23,0,.62,.16,1.24,.41,1.85,4.76-11.8,54.45-21.11,115.09-21.14Z"/>
              <path class="cls-16" d="M1307.67,773.3c60.65-.03,110.36,9.23,115.12,21.04,.25-.61,.41-1.23,.41-1.86,0-12.67-51.73-22.92-115.53-22.89-63.8,.03-115.51,10.33-115.5,23,0,.62,.16,1.24,.41,1.85,4.76-11.8,54.45-21.11,115.09-21.14Z"/>
              <path class="cls-8" d="M1307.69,815.47c60.64-.03,110.33-9.33,115.09-21.14-4.76-11.8-54.46-21.06-115.12-21.04-60.64,.03-110.33,9.34-115.09,21.14,4.76,11.8,54.46,21.06,115.12,21.04Z"/>
              <g>
                <g>
                  <path class="cls-11" d="M1177.52,792.71l.02,27.11h.02c.08,3.49,2.56,6.84,7.02,9.96v-26.93c-4.54-3.18-7.05-6.59-7.05-10.14Z"/>
                  <path class="cls-11" d="M1310.66,850.87c1.12,0,2.24,0,3.34-.02v-26.95c-1.11,.01-2.23,.02-3.34,.02v26.95Z"/>
                  <path class="cls-11" d="M1256.53,848.39c1.1,.11,2.22,.22,3.34,.32v-26.95c-1.12-.11-2.24-.21-3.34-.32v26.95Z"/>
                  <path class="cls-11" d="M1202.4,838.03c1.08,.36,2.2,.71,3.34,1.05v-26.94c-1.14-.35-2.26-.7-3.34-1.05v26.94Z"/>
                  <path class="cls-11" d="M1437.82,792.59c0,4.01-3.18,7.85-8.91,11.38v26.95c5.65-3.48,8.82-7.26,8.9-11.22h.02l-.02-27.11Z"/>
                  <path class="cls-11" d="M1418.91,835.8c1.17-.46,2.28-.93,3.34-1.41v-26.95c-1.07,.48-2.18,.94-3.34,1.4v26.95Z"/>
                  <path class="cls-11" d="M1368.13,820.33c-1.11,.14-2.22,.28-3.34,.41-5.72,.68-11.68,1.25-17.83,1.72-8.43,.64-17.22,1.09-26.29,1.31v26.95c9.07-.22,17.86-.67,26.29-1.31,6.16-.47,12.11-1.05,17.83-1.72,1.13-.13,2.24-.27,3.34-.41,2.26-.29,4.48-.58,6.66-.9,9.66-1.4,18.48-3.11,26.29-5.05v-26.95c-7.81,1.94-16.63,3.64-26.29,5.04-2.18,.32-4.4,.61-6.66,.9Z"/>
                </g>
                <g>
                  <path class="cls-5" d="M1212.41,814c-2.32-.6-4.54-1.22-6.66-1.86v26.94c2.12,.64,4.34,1.26,6.66,1.86,7.76,2,16.6,3.75,26.29,5.21,5.67,.85,11.62,1.6,17.83,2.24v-26.95c-6.21-.64-12.16-1.39-17.83-2.24-9.7-1.46-18.53-3.21-26.29-5.21Z"/>
                  <path class="cls-5" d="M1184.57,829.79c4.24,2.97,10.28,5.74,17.83,8.24v-26.94c-7.55-2.49-13.59-5.26-17.83-8.23v26.93Z"/>
                  <path class="cls-5" d="M1292.83,823.73c-9.08-.24-17.87-.71-26.29-1.38-2.25-.18-4.47-.37-6.66-.58v26.95c2.19,.21,4.41,.4,6.66,.58,8.42,.67,17.21,1.14,26.29,1.38,4.89,.13,9.84,.21,14.88,.2,.99,0,1.97-.01,2.95-.02v-26.95c-.99,0-1.97,.02-2.97,.02-5.03,0-9.98-.07-14.86-.2Z"/>
                  <path class="cls-5" d="M1314,850.84c2.24-.03,4.46-.07,6.66-.12v-26.95c-2.2,.05-4.42,.09-6.66,.12v26.95Z"/>
                  <path class="cls-5" d="M1401.08,841.34c6.76-1.68,12.76-3.53,17.83-5.53v-26.95c-5.07,2-11.08,3.86-17.83,5.53v26.95Z"/>
                  <path class="cls-5" d="M1422.26,807.45v26.95c2.51-1.12,4.72-2.28,6.66-3.47v-26.95c-1.94,1.2-4.15,2.36-6.66,3.48Z"/>
                </g>
              </g>
            </g>
            <g>
              <path class="cls-11" d="M1437.82,748.61c0,4.01-3.18,7.85-8.91,11.38-1.94,1.2-4.15,2.36-6.66,3.48-1.07,.48-2.18,.94-3.34,1.4-5.07,2-11.08,3.86-17.83,5.53-7.81,1.94-16.63,3.64-26.29,5.04-2.18,.32-4.4,.61-6.66,.9-1.11,.14-2.22,.28-3.34,.41-5.72,.68-11.68,1.25-17.83,1.72-8.43,.64-17.22,1.09-26.29,1.31-2.2,.05-4.42,.09-6.66,.12-1.11,.01-2.23,.02-3.34,.02-.99,0-1.97,.02-2.97,.02-5.03,0-9.98-.07-14.86-.2-9.08-.24-17.87-.71-26.29-1.38-2.25-.18-4.47-.37-6.66-.58-1.12-.11-2.24-.21-3.34-.32-6.21-.64-12.16-1.39-17.83-2.24-9.7-1.46-18.53-3.21-26.29-5.21-2.32-.6-4.54-1.22-6.66-1.86-1.14-.35-2.26-.7-3.34-1.05-7.55-2.49-13.59-5.26-17.83-8.23-4.54-3.18-7.05-6.59-7.05-10.14l.02,27.11h.02c.08,3.49,2.56,6.84,7.02,9.96,4.24,2.97,10.28,5.75,17.83,8.24,1.08,.36,2.2,.71,3.34,1.05,2.12,.64,4.34,1.26,6.66,1.86,7.76,2,16.6,3.75,26.29,5.21,5.67,.85,11.62,1.6,17.83,2.24,1.1,.11,2.22,.22,3.34,.32,2.19,.21,4.41,.4,6.66,.58,8.42,.67,17.21,1.14,26.29,1.38,4.89,.13,9.84,.21,14.88,.2,.99,0,1.97-.01,2.95-.02,1.12,0,2.24,0,3.34-.02,2.24-.03,4.46-.07,6.66-.12,9.07-.22,17.86-.67,26.29-1.31,6.16-.47,12.11-1.05,17.83-1.72,1.13-.13,2.24-.27,3.34-.41,2.26-.29,4.48-.58,6.66-.9,9.66-1.4,18.48-3.11,26.29-5.05,6.76-1.68,12.76-3.53,17.83-5.53,1.17-.46,2.28-.93,3.34-1.41,2.51-1.12,4.72-2.28,6.66-3.47,5.65-3.48,8.82-7.26,8.9-11.22h.02l-.02-27.11Z"/>
              <path class="cls-18" d="M1437.82,748.61c0,4.01-3.18,7.85-8.91,11.38-1.94,1.2-4.15,2.36-6.66,3.48-1.07,.48-2.18,.94-3.34,1.4-5.07,2-11.08,3.86-17.83,5.53-7.81,1.94-16.63,3.64-26.29,5.04-2.18,.32-4.4,.61-6.66,.9-1.11,.14-2.22,.28-3.34,.41-5.72,.68-11.68,1.25-17.83,1.72-8.43,.64-17.22,1.09-26.29,1.31-2.2,.05-4.42,.09-6.66,.12-1.11,.01-2.23,.02-3.34,.02-.99,0-1.97,.02-2.97,.02-5.03,0-9.98-.07-14.86-.2-9.08-.24-17.87-.71-26.29-1.38-2.25-.18-4.47-.37-6.66-.58-1.12-.11-2.24-.21-3.34-.32-6.21-.64-12.16-1.39-17.83-2.24-9.7-1.46-18.53-3.21-26.29-5.21-2.32-.6-4.54-1.22-6.66-1.86-1.14-.35-2.26-.7-3.34-1.05-7.55-2.49-13.59-5.26-17.83-8.23-4.54-3.18-7.05-6.59-7.05-10.14l.02,27.11h.02c.08,3.49,2.56,6.84,7.02,9.96,4.24,2.97,10.28,5.75,17.83,8.24,1.08,.36,2.2,.71,3.34,1.05,2.12,.64,4.34,1.26,6.66,1.86,7.76,2,16.6,3.75,26.29,5.21,5.67,.85,11.62,1.6,17.83,2.24,1.1,.11,2.22,.22,3.34,.32,2.19,.21,4.41,.4,6.66,.58,8.42,.67,17.21,1.14,26.29,1.38,4.89,.13,9.84,.21,14.88,.2,.99,0,1.97-.01,2.95-.02,1.12,0,2.24,0,3.34-.02,2.24-.03,4.46-.07,6.66-.12,9.07-.22,17.86-.67,26.29-1.31,6.16-.47,12.11-1.05,17.83-1.72,1.13-.13,2.24-.27,3.34-.41,2.26-.29,4.48-.58,6.66-.9,9.66-1.4,18.48-3.11,26.29-5.05,6.76-1.68,12.76-3.53,17.83-5.53,1.17-.46,2.28-.93,3.34-1.41,2.51-1.12,4.72-2.28,6.66-3.47,5.65-3.48,8.82-7.26,8.9-11.22h.02l-.02-27.11Z"/>
              <ellipse class="cls-11" cx="1307.68" cy="745.25" rx="130.15" ry="31.28"/>
              <path class="cls-11" d="M1307.67,725.96c60.65-.03,110.36,9.23,115.12,21.04,.25-.61,.41-1.23,.41-1.86,0-12.67-51.73-22.92-115.53-22.89-63.8,.03-115.51,10.33-115.5,23,0,.62,.16,1.24,.41,1.85,4.76-11.8,54.45-21.11,115.09-21.14Z"/>
              <path class="cls-16" d="M1307.67,725.96c60.65-.03,110.36,9.23,115.12,21.04,.25-.61,.41-1.23,.41-1.86,0-12.67-51.73-22.92-115.53-22.89-63.8,.03-115.51,10.33-115.5,23,0,.62,.16,1.24,.41,1.85,4.76-11.8,54.45-21.11,115.09-21.14Z"/>
              <path class="cls-8" d="M1307.69,768.13c60.64-.03,110.33-9.33,115.09-21.14-4.76-11.8-54.46-21.06-115.12-21.04-60.64,.03-110.33,9.34-115.09,21.14,4.76,11.8,54.46,21.06,115.12,21.04Z"/>
              <g>
                <g>
                  <path class="cls-11" d="M1177.52,745.38l.02,27.11h.02c.08,3.49,2.56,6.84,7.02,9.96v-26.93c-4.54-3.18-7.05-6.59-7.05-10.14Z"/>
                  <path class="cls-11" d="M1310.66,803.53c1.12,0,2.24,0,3.34-.02v-26.95c-1.11,.01-2.23,.02-3.34,.02v26.95Z"/>
                  <path class="cls-11" d="M1256.53,801.06c1.1,.11,2.22,.22,3.34,.32v-26.95c-1.12-.11-2.24-.21-3.34-.32v26.95Z"/>
                  <path class="cls-11" d="M1202.4,790.69c1.08,.36,2.2,.71,3.34,1.05v-26.94c-1.14-.35-2.26-.7-3.34-1.05v26.94Z"/>
                  <path class="cls-11" d="M1437.82,745.25c0,4.01-3.18,7.85-8.91,11.38v26.95c5.65-3.48,8.82-7.26,8.9-11.22h.02l-.02-27.11Z"/>
                  <path class="cls-11" d="M1418.91,788.46c1.17-.46,2.28-.93,3.34-1.41v-26.95c-1.07,.48-2.18,.94-3.34,1.4v26.95Z"/>
                  <path class="cls-11" d="M1368.13,772.99c-1.11,.14-2.22,.28-3.34,.41-5.72,.68-11.68,1.25-17.83,1.72-8.43,.64-17.22,1.09-26.29,1.31v26.95c9.07-.22,17.86-.67,26.29-1.31,6.16-.47,12.11-1.05,17.83-1.72,1.13-.13,2.24-.27,3.34-.41,2.26-.29,4.48-.58,6.66-.9,9.66-1.4,18.48-3.11,26.29-5.05v-26.95c-7.81,1.94-16.63,3.64-26.29,5.04-2.18,.32-4.4,.61-6.66,.9Z"/>
                </g>
                <g>
                  <path class="cls-5" d="M1212.41,766.66c-2.32-.6-4.54-1.22-6.66-1.86v26.94c2.12,.64,4.34,1.26,6.66,1.86,7.76,2,16.6,3.75,26.29,5.21,5.67,.85,11.62,1.6,17.83,2.24v-26.95c-6.21-.64-12.16-1.39-17.83-2.24-9.7-1.46-18.53-3.21-26.29-5.21Z"/>
                  <path class="cls-5" d="M1184.57,782.45c4.24,2.97,10.28,5.75,17.83,8.24v-26.94c-7.55-2.49-13.59-5.26-17.83-8.23v26.93Z"/>
                  <path class="cls-5" d="M1292.83,776.39c-9.08-.24-17.87-.71-26.29-1.38-2.25-.18-4.47-.37-6.66-.58v26.95c2.19,.21,4.41,.4,6.66,.58,8.42,.67,17.21,1.14,26.29,1.38,4.89,.13,9.84,.21,14.88,.2,.99,0,1.97-.01,2.95-.02v-26.95c-.99,0-1.97,.02-2.97,.02-5.03,0-9.98-.07-14.86-.2Z"/>
                  <path class="cls-5" d="M1314,803.51c2.24-.03,4.46-.07,6.66-.12v-26.95c-2.2,.05-4.42,.09-6.66,.12v26.95Z"/>
                  <path class="cls-5" d="M1401.08,794c6.76-1.68,12.76-3.53,17.83-5.53v-26.95c-5.07,2-11.08,3.86-17.83,5.53v26.95Z"/>
                  <path class="cls-5" d="M1422.26,760.11v26.95c2.51-1.12,4.72-2.28,6.66-3.47v-26.95c-1.94,1.2-4.15,2.36-6.66,3.48Z"/>
                </g>
              </g>
            </g>
            <g>
              <g>
                <path class="cls-11" d="M1437.82,701.27c0,4.01-3.18,7.85-8.91,11.38-1.94,1.2-4.15,2.36-6.66,3.48-1.07,.48-2.18,.94-3.34,1.4-5.07,2-11.08,3.86-17.83,5.53-7.81,1.94-16.63,3.64-26.29,5.04-2.18,.32-4.4,.61-6.66,.9-1.11,.14-2.22,.28-3.34,.41-5.72,.68-11.68,1.25-17.83,1.72-8.43,.64-17.22,1.09-26.29,1.31-2.2,.05-4.42,.09-6.66,.12-1.11,.01-2.23,.02-3.34,.02-.99,0-1.97,.02-2.97,.02-5.03,0-9.98-.07-14.86-.2-9.08-.24-17.87-.71-26.29-1.38-2.25-.18-4.47-.37-6.66-.58-1.12-.11-2.24-.21-3.34-.32-6.21-.64-12.16-1.39-17.83-2.24-9.7-1.46-18.53-3.21-26.29-5.21-2.32-.6-4.54-1.22-6.66-1.86-1.14-.35-2.26-.7-3.34-1.05-7.55-2.49-13.59-5.26-17.83-8.23-4.54-3.18-7.05-6.59-7.05-10.14l.02,27.11h.02c.08,3.49,2.56,6.84,7.02,9.96,4.24,2.97,10.28,5.74,17.83,8.24,1.08,.36,2.2,.71,3.34,1.05,2.12,.64,4.34,1.26,6.66,1.86,7.76,2,16.6,3.75,26.29,5.21,5.67,.85,11.62,1.6,17.83,2.24,1.1,.11,2.22,.22,3.34,.32,2.19,.21,4.41,.4,6.66,.58,8.42,.67,17.21,1.14,26.29,1.38,4.89,.13,9.84,.21,14.88,.2,.99,0,1.97-.01,2.95-.02,1.12,0,2.24,0,3.34-.02,2.24-.03,4.46-.07,6.66-.12,9.07-.22,17.86-.67,26.29-1.31,6.16-.47,12.11-1.05,17.83-1.72,1.13-.13,2.24-.27,3.34-.41,2.26-.29,4.48-.58,6.66-.9,9.66-1.4,18.48-3.11,26.29-5.05,6.76-1.68,12.76-3.53,17.83-5.53,1.17-.46,2.28-.93,3.34-1.41,2.51-1.12,4.72-2.28,6.66-3.47,5.65-3.48,8.82-7.26,8.9-11.22h.02l-.02-27.11Z"/>
                <path class="cls-18" d="M1437.82,701.27c0,4.01-3.18,7.85-8.91,11.38-1.94,1.2-4.15,2.36-6.66,3.48-1.07,.48-2.18,.94-3.34,1.4-5.07,2-11.08,3.86-17.83,5.53-7.81,1.94-16.63,3.64-26.29,5.04-2.18,.32-4.4,.61-6.66,.9-1.11,.14-2.22,.28-3.34,.41-5.72,.68-11.68,1.25-17.83,1.72-8.43,.64-17.22,1.09-26.29,1.31-2.2,.05-4.42,.09-6.66,.12-1.11,.01-2.23,.02-3.34,.02-.99,0-1.97,.02-2.97,.02-5.03,0-9.98-.07-14.86-.2-9.08-.24-17.87-.71-26.29-1.38-2.25-.18-4.47-.37-6.66-.58-1.12-.11-2.24-.21-3.34-.32-6.21-.64-12.16-1.39-17.83-2.24-9.7-1.46-18.53-3.21-26.29-5.21-2.32-.6-4.54-1.22-6.66-1.86-1.14-.35-2.26-.7-3.34-1.05-7.55-2.49-13.59-5.26-17.83-8.23-4.54-3.18-7.05-6.59-7.05-10.14l.02,27.11h.02c.08,3.49,2.56,6.84,7.02,9.96,4.24,2.97,10.28,5.74,17.83,8.24,1.08,.36,2.2,.71,3.34,1.05,2.12,.64,4.34,1.26,6.66,1.86,7.76,2,16.6,3.75,26.29,5.21,5.67,.85,11.62,1.6,17.83,2.24,1.1,.11,2.22,.22,3.34,.32,2.19,.21,4.41,.4,6.66,.58,8.42,.67,17.21,1.14,26.29,1.38,4.89,.13,9.84,.21,14.88,.2,.99,0,1.97-.01,2.95-.02,1.12,0,2.24,0,3.34-.02,2.24-.03,4.46-.07,6.66-.12,9.07-.22,17.86-.67,26.29-1.31,6.16-.47,12.11-1.05,17.83-1.72,1.13-.13,2.24-.27,3.34-.41,2.26-.29,4.48-.58,6.66-.9,9.66-1.4,18.48-3.11,26.29-5.05,6.76-1.68,12.76-3.53,17.83-5.53,1.17-.46,2.28-.93,3.34-1.41,2.51-1.12,4.72-2.28,6.66-3.47,5.65-3.48,8.82-7.26,8.9-11.22h.02l-.02-27.11Z"/>
                <ellipse class="cls-11" cx="1307.68" cy="697.92" rx="130.15" ry="31.28"/>
                <path class="cls-11" d="M1307.67,678.62c60.65-.03,110.36,9.23,115.12,21.04,.25-.61,.41-1.23,.41-1.86,0-12.67-51.73-22.92-115.53-22.89-63.8,.03-115.51,10.33-115.5,23,0,.62,.16,1.24,.41,1.85,4.76-11.8,54.45-21.11,115.09-21.14Z"/>
                <path class="cls-16" d="M1307.67,678.62c60.65-.03,110.36,9.23,115.12,21.04,.25-.61,.41-1.23,.41-1.86,0-12.67-51.73-22.92-115.53-22.89-63.8,.03-115.51,10.33-115.5,23,0,.62,.16,1.24,.41,1.85,4.76-11.8,54.45-21.11,115.09-21.14Z"/>
                <path class="cls-8" d="M1307.69,720.8c60.64-.03,110.33-9.33,115.09-21.14-4.76-11.8-54.46-21.06-115.12-21.04-60.64,.03-110.33,9.34-115.09,21.14,4.76,11.8,54.46,21.06,115.12,21.04Z"/>
                <g>
                  <g>
                    <path class="cls-11" d="M1177.52,698.04l.02,27.11h.02c.08,3.49,2.56,6.84,7.02,9.96v-26.93c-4.54-3.18-7.05-6.59-7.05-10.14Z"/>
                    <path class="cls-11" d="M1310.66,756.19c1.12,0,2.24,0,3.34-.02v-26.95c-1.11,.01-2.23,.02-3.34,.02v26.95Z"/>
                    <path class="cls-11" d="M1256.53,753.72c1.1,.11,2.22,.22,3.34,.32v-26.95c-1.12-.1-2.24-.21-3.34-.32v26.95Z"/>
                    <path class="cls-11" d="M1202.4,743.35c1.08,.36,2.2,.71,3.34,1.05v-26.94c-1.14-.35-2.26-.7-3.34-1.05v26.94Z"/>
                    <path class="cls-11" d="M1437.82,697.92c0,4.01-3.18,7.85-8.91,11.38v26.95c5.65-3.48,8.82-7.26,8.9-11.22h.02l-.02-27.11Z"/>
                    <path class="cls-11" d="M1418.91,741.12c1.17-.46,2.28-.93,3.34-1.41v-26.95c-1.07,.48-2.18,.94-3.34,1.4v26.95Z"/>
                    <path class="cls-11" d="M1368.13,725.65c-1.11,.14-2.22,.28-3.34,.41-5.72,.68-11.68,1.25-17.83,1.72-8.43,.64-17.22,1.09-26.29,1.31v26.95c9.07-.22,17.86-.67,26.29-1.31,6.16-.47,12.11-1.05,17.83-1.72,1.13-.13,2.24-.27,3.34-.41,2.26-.29,4.48-.58,6.66-.9,9.66-1.4,18.48-3.11,26.29-5.05v-26.95c-7.81,1.94-16.63,3.64-26.29,5.04-2.18,.32-4.4,.61-6.66,.9Z"/>
                  </g>
                  <g>
                    <path class="cls-5" d="M1212.41,719.32c-2.32-.6-4.54-1.22-6.66-1.86v26.94c2.12,.64,4.34,1.26,6.66,1.86,7.76,2,16.6,3.75,26.29,5.21,5.67,.85,11.62,1.6,17.83,2.24v-26.95c-6.21-.64-12.16-1.39-17.83-2.24-9.7-1.46-18.53-3.21-26.29-5.21Z"/>
                    <path class="cls-5" d="M1184.57,735.11c4.24,2.97,10.28,5.74,17.83,8.24v-26.94c-7.55-2.49-13.59-5.26-17.83-8.23v26.93Z"/>
                    <path class="cls-5" d="M1292.83,729.06c-9.08-.24-17.87-.71-26.29-1.38-2.25-.18-4.47-.37-6.66-.58v26.95c2.19,.21,4.41,.4,6.66,.58,8.42,.67,17.21,1.14,26.29,1.38,4.89,.13,9.84,.21,14.88,.2,.99,0,1.97-.01,2.95-.02v-26.95c-.99,0-1.97,.02-2.97,.02-5.03,0-9.98-.07-14.86-.2Z"/>
                    <path class="cls-5" d="M1314,756.17c2.24-.03,4.46-.07,6.66-.12v-26.95c-2.2,.05-4.42,.09-6.66,.12v26.95Z"/>
                    <path class="cls-5" d="M1401.08,746.66c6.76-1.68,12.76-3.53,17.83-5.53v-26.95c-5.07,2-11.08,3.86-17.83,5.53v26.95Z"/>
                    <path class="cls-5" d="M1422.26,712.77v26.95c2.51-1.12,4.72-2.28,6.66-3.47v-26.95c-1.94,1.2-4.15,2.36-6.66,3.48Z"/>
                  </g>
                </g>
              </g>
              <path class="cls-10" d="M1344.43,702.28c0,1.02-.77,1.95-2.32,2.77-1.55,.82-3.75,1.53-6.59,2.12-2.85,.6-6.27,1.07-10.29,1.43-4.01,.36-8.46,.58-13.33,.68l-1.6,3.82c-.05,.1-.17,.18-.34,.25-.18,.07-.51,.13-.99,.18-.48,.05-1.14,.09-1.98,.12-.84,.03-1.89,.04-3.16,.04-1.63,0-2.93-.02-3.92-.05-.99-.04-1.77-.09-2.32-.15-.56-.07-.93-.15-1.11-.26-.18-.11-.22-.23-.11-.36l1.6-3.62c-2.18-.07-4.24-.16-6.17-.28-1.93-.11-3.68-.24-5.26-.37-1.57-.14-2.93-.28-4.08-.42s-2.01-.28-2.59-.42c-.59-.14-1-.34-1.26-.61-.25-.27-.38-.66-.38-1.19,0-.41,.05-.74,.15-1,.1-.26,.28-.46,.53-.61,.25-.14,.57-.24,.95-.29,.38-.05,.82-.08,1.33-.08,.66,0,1.63,.09,2.9,.27,1.27,.18,2.9,.37,4.88,.59,1.98,.21,4.38,.41,7.2,.59,2.82,.18,6.13,.27,9.94,.27,5.94,0,10.36-.26,13.26-.78,2.9-.52,4.34-1.21,4.34-2.06,0-.57-.62-1.04-1.87-1.41-1.25-.37-2.91-.69-4.99-.97-2.08-.28-4.43-.53-7.05-.75-2.62-.22-5.3-.46-8.04-.7-2.74-.25-5.42-.54-8.04-.88s-4.96-.74-7.05-1.23c-2.08-.49-3.75-1.08-4.99-1.78-1.25-.7-1.87-1.54-1.87-2.53,0-.89,.63-1.7,1.91-2.44,1.27-.73,3.1-1.37,5.48-1.92,2.39-.55,5.32-.99,8.8-1.33,3.48-.34,7.43-.57,11.85-.69l1.52-3.59c.05-.09,.17-.18,.34-.24,.18-.07,.51-.13,.99-.18,.48-.05,1.13-.09,1.94-.12,.81-.02,1.88-.04,3.2-.04,1.57,0,2.88,.02,3.92,.05s1.84,.09,2.4,.15c.56,.07,.91,.15,1.07,.26,.15,.11,.23,.23,.23,.36l-1.52,3.37c1.42,.05,2.92,.11,4.5,.2,1.57,.08,3.05,.18,4.42,.29,1.37,.11,2.62,.23,3.73,.36,1.12,.13,1.89,.24,2.32,.34,.43,.1,.76,.2,.99,.3,.23,.1,.41,.23,.53,.37,.13,.15,.22,.33,.27,.54,.05,.21,.07,.45,.07,.72,0,.37-.04,.67-.11,.91-.07,.24-.22,.42-.42,.54-.2,.12-.43,.21-.69,.25-.26,.04-.56,.06-.91,.06-.66,0-1.63-.08-2.9-.23-1.27-.15-2.83-.32-4.69-.5-1.85-.18-3.99-.34-6.4-.5s-5.07-.23-7.96-.23c-2.64,0-4.9,.06-6.78,.18-1.88,.12-3.4,.29-4.57,.5-1.17,.21-2.03,.47-2.59,.77-.56,.3-.84,.62-.84,.98,0,.56,.63,1.03,1.9,1.41,1.27,.38,2.96,.71,5.07,.98,2.11,.27,4.5,.52,7.16,.75,2.67,.23,5.38,.46,8.15,.71,2.77,.25,5.49,.54,8.15,.87,2.67,.33,5.04,.73,7.12,1.21,2.08,.48,3.76,1.06,5.03,1.75,1.27,.68,1.91,1.51,1.91,2.47Z"/>
            </g>
          </g>
          <g>
            <g>
              <path class="cls-11" d="M998.27,885.92c0,4.34,3.19,8.48,8.95,12.3,1.95,1.29,4.17,2.55,6.69,3.76,1.07,.51,2.19,1.02,3.36,1.52,5.1,2.17,11.13,4.17,17.92,5.98,7.85,2.09,16.72,3.93,26.43,5.45,2.19,.34,4.43,.66,6.69,.97,1.11,.15,2.23,.3,3.36,.45,5.75,.73,11.74,1.35,17.92,1.86,8.47,.7,17.31,1.18,26.43,1.41,2.22,.06,4.45,.1,6.69,.13,1.11,.01,2.24,.02,3.36,.02,1,0,1.98,.02,2.98,.02,5.06,0,10.03-.08,14.94-.22,9.13-.26,17.97-.77,26.43-1.5,2.26-.19,4.49-.4,6.69-.63,1.12-.11,2.25-.23,3.36-.35,6.24-.69,12.23-1.5,17.92-2.42,9.75-1.57,18.63-3.47,26.43-5.63,2.33-.65,4.56-1.32,6.69-2.01,1.15-.37,2.27-.75,3.36-1.14,7.59-2.69,13.66-5.68,17.92-8.89,4.57-3.44,7.08-7.12,7.08-10.96l-.02,29.3h-.02c-.08,3.77-2.57,7.39-7.05,10.77-4.26,3.21-10.33,6.21-17.92,8.9-1.09,.39-2.21,.77-3.36,1.14-2.13,.69-4.36,1.37-6.69,2.01-7.8,2.16-16.68,4.06-26.43,5.63-5.7,.92-11.68,1.73-17.92,2.42-1.11,.12-2.24,.24-3.36,.35-2.2,.22-4.43,.43-6.69,.63-8.46,.72-17.3,1.23-26.43,1.5-4.91,.14-9.89,.22-14.96,.22-1,0-1.98-.01-2.97-.02-1.12,0-2.25,0-3.36-.02-2.25-.03-4.48-.07-6.69-.13-9.12-.24-17.96-.72-26.43-1.41-6.19-.51-12.17-1.13-17.92-1.86-1.13-.14-2.25-.29-3.36-.44-2.27-.31-4.51-.63-6.69-.97-9.71-1.52-18.58-3.36-26.43-5.45-6.79-1.81-12.82-3.81-17.92-5.98-1.17-.5-2.29-1.01-3.36-1.52-2.52-1.21-4.75-2.46-6.69-3.75-5.68-3.76-8.87-7.85-8.95-12.12h-.02l.02-29.3Z"/>
              <path class="cls-18" d="M998.27,885.92c0,4.34,3.19,8.48,8.95,12.3,1.95,1.29,4.17,2.55,6.69,3.76,1.07,.51,2.19,1.02,3.36,1.52,5.1,2.17,11.13,4.17,17.92,5.98,7.85,2.09,16.72,3.93,26.43,5.45,2.19,.34,4.43,.66,6.69,.97,1.11,.15,2.23,.3,3.36,.45,5.75,.73,11.74,1.35,17.92,1.86,8.47,.7,17.31,1.18,26.43,1.41,2.22,.06,4.45,.1,6.69,.13,1.11,.01,2.24,.02,3.36,.02,1,0,1.98,.02,2.98,.02,5.06,0,10.03-.08,14.94-.22,9.13-.26,17.97-.77,26.43-1.5,2.26-.19,4.49-.4,6.69-.63,1.12-.11,2.25-.23,3.36-.35,6.24-.69,12.23-1.5,17.92-2.42,9.75-1.57,18.63-3.47,26.43-5.63,2.33-.65,4.56-1.32,6.69-2.01,1.15-.37,2.27-.75,3.36-1.14,7.59-2.69,13.66-5.68,17.92-8.89,4.57-3.44,7.08-7.12,7.08-10.96l-.02,29.3h-.02c-.08,3.77-2.57,7.39-7.05,10.77-4.26,3.21-10.33,6.21-17.92,8.9-1.09,.39-2.21,.77-3.36,1.14-2.13,.69-4.36,1.37-6.69,2.01-7.8,2.16-16.68,4.06-26.43,5.63-5.7,.92-11.68,1.73-17.92,2.42-1.11,.12-2.24,.24-3.36,.35-2.2,.22-4.43,.43-6.69,.63-8.46,.72-17.3,1.23-26.43,1.5-4.91,.14-9.89,.22-14.96,.22-1,0-1.98-.01-2.97-.02-1.12,0-2.25,0-3.36-.02-2.25-.03-4.48-.07-6.69-.13-9.12-.24-17.96-.72-26.43-1.41-6.19-.51-12.17-1.13-17.92-1.86-1.13-.14-2.25-.29-3.36-.44-2.27-.31-4.51-.63-6.69-.97-9.71-1.52-18.58-3.36-26.43-5.45-6.79-1.81-12.82-3.81-17.92-5.98-1.17-.5-2.29-1.01-3.36-1.52-2.52-1.21-4.75-2.46-6.69-3.75-5.68-3.76-8.87-7.85-8.95-12.12h-.02l.02-29.3Z"/>
              <ellipse class="cls-11" cx="1129.08" cy="882.3" rx="130.82" ry="33.8"/>
              <path class="cls-11" d="M1129.1,861.45c-60.96-.03-110.92,9.98-115.71,22.73-.25-.66-.41-1.33-.41-2.01,0-13.69,51.99-24.77,116.12-24.73,64.12,.03,116.1,11.16,116.09,24.85,0,.68-.16,1.34-.41,2-4.78-12.75-54.73-22.81-115.68-22.84Z"/>
              <path class="cls-16" d="M1129.1,861.45c-60.96-.03-110.92,9.98-115.71,22.73-.25-.66-.41-1.33-.41-2.01,0-13.69,51.99-24.77,116.12-24.73,64.12,.03,116.1,11.16,116.09,24.85,0,.68-.16,1.34-.41,2-4.78-12.75-54.73-22.81-115.68-22.84Z"/>
              <path class="cls-8" d="M1129.07,907.02c-60.95-.03-110.9-10.09-115.68-22.84,4.78-12.75,54.74-22.76,115.71-22.73,60.95,.03,110.9,10.09,115.68,22.84-4.78,12.75-54.74,22.76-115.71,22.73Z"/>
              <g>
                <g>
                  <path class="cls-11" d="M1259.91,882.43l-.02,29.3h-.02c-.08,3.77-2.57,7.39-7.05,10.77v-29.1c4.57-3.44,7.08-7.12,7.08-10.96Z"/>
                  <path class="cls-11" d="M1126.09,945.27c-1.12,0-2.25,0-3.36-.02v-29.12c1.11,.01,2.24,.02,3.36,.02v29.12Z"/>
                  <path class="cls-11" d="M1180.49,942.6c-1.11,.12-2.24,.24-3.36,.35v-29.12c1.12-.11,2.25-.23,3.36-.35v29.12Z"/>
                  <path class="cls-11" d="M1234.9,931.39c-1.09,.39-2.21,.77-3.36,1.14v-29.11c1.15-.37,2.27-.75,3.36-1.14v29.11Z"/>
                  <path class="cls-11" d="M998.27,882.3c0,4.34,3.19,8.48,8.95,12.3v29.13c-5.68-3.76-8.87-7.85-8.95-12.12h-.02l.02-29.3Z"/>
                  <path class="cls-11" d="M1017.28,928.99c-1.17-.5-2.29-1.01-3.36-1.52v-29.12c1.07,.51,2.19,1.02,3.36,1.52v29.12Z"/>
                  <path class="cls-11" d="M1068.32,912.27c1.11,.15,2.23,.3,3.36,.45,5.75,.73,11.74,1.35,17.92,1.86,8.47,.7,17.31,1.18,26.43,1.41v29.12c-9.12-.24-17.96-.72-26.43-1.41-6.19-.51-12.17-1.13-17.92-1.86-1.13-.14-2.25-.29-3.36-.44-2.27-.31-4.51-.63-6.69-.97-9.71-1.52-18.58-3.36-26.43-5.45v-29.12c7.85,2.09,16.72,3.93,26.43,5.45,2.19,.34,4.43,.66,6.69,.97Z"/>
                </g>
                <g>
                  <path class="cls-5" d="M1224.84,905.43c2.33-.65,4.56-1.32,6.69-2.01v29.11c-2.13,.69-4.36,1.37-6.69,2.01-7.8,2.16-16.68,4.06-26.43,5.63-5.7,.92-11.68,1.73-17.92,2.42v-29.12c6.24-.69,12.23-1.5,17.92-2.42,9.75-1.57,18.63-3.47,26.43-5.63Z"/>
                  <path class="cls-5" d="M1252.82,922.49c-4.26,3.21-10.33,6.21-17.92,8.9v-29.11c7.59-2.69,13.66-5.68,17.92-8.89v29.1Z"/>
                  <path class="cls-5" d="M1144.01,915.95c9.13-.26,17.97-.77,26.43-1.5,2.26-.19,4.49-.4,6.69-.63v29.12c-2.2,.22-4.43,.43-6.69,.63-8.46,.72-17.3,1.23-26.43,1.5-4.91,.14-9.89,.22-14.96,.22-1,0-1.98-.01-2.97-.02v-29.12c1,0,1.98,.02,2.98,.02,5.06,0,10.03-.08,14.94-.22Z"/>
                  <path class="cls-5" d="M1122.73,945.25c-2.25-.03-4.48-.07-6.69-.13v-29.12c2.22,.06,4.45,.1,6.69,.13v29.12Z"/>
                  <path class="cls-5" d="M1035.21,934.97c-6.79-1.81-12.82-3.81-17.92-5.98v-29.12c5.1,2.17,11.13,4.17,17.92,5.98v29.12Z"/>
                  <path class="cls-5" d="M1013.92,898.35v29.12c-2.52-1.21-4.75-2.46-6.69-3.75v-29.13c1.95,1.29,4.17,2.55,6.69,3.76Z"/>
                </g>
              </g>
            </g>
            <g>
              <path class="cls-11" d="M998.27,834.77c0,4.34,3.19,8.48,8.95,12.3,1.95,1.29,4.17,2.55,6.69,3.76,1.07,.51,2.19,1.02,3.36,1.52,5.1,2.17,11.13,4.17,17.92,5.98,7.85,2.09,16.72,3.93,26.43,5.45,2.19,.34,4.43,.66,6.69,.97,1.11,.15,2.23,.3,3.36,.45,5.75,.73,11.74,1.35,17.92,1.86,8.47,.7,17.31,1.18,26.43,1.41,2.22,.06,4.45,.1,6.69,.13,1.11,.01,2.24,.02,3.36,.02,1,0,1.98,.02,2.98,.02,5.06,0,10.03-.08,14.94-.22,9.13-.26,17.97-.77,26.43-1.5,2.26-.19,4.49-.4,6.69-.63,1.12-.11,2.25-.23,3.36-.35,6.24-.69,12.23-1.5,17.92-2.42,9.75-1.57,18.63-3.47,26.43-5.63,2.33-.65,4.56-1.32,6.69-2.01,1.15-.37,2.27-.75,3.36-1.14,7.59-2.69,13.66-5.68,17.92-8.89,4.57-3.44,7.08-7.12,7.08-10.96l-.02,29.3h-.02c-.08,3.77-2.57,7.39-7.05,10.77-4.26,3.21-10.33,6.21-17.92,8.9-1.09,.39-2.21,.77-3.36,1.14-2.13,.69-4.36,1.37-6.69,2.01-7.8,2.16-16.68,4.06-26.43,5.63-5.7,.92-11.68,1.73-17.92,2.42-1.11,.12-2.24,.24-3.36,.35-2.2,.22-4.43,.43-6.69,.63-8.46,.72-17.3,1.23-26.43,1.5-4.91,.14-9.89,.22-14.96,.22-1,0-1.98-.01-2.97-.02-1.12,0-2.25,0-3.36-.02-2.25-.03-4.48-.07-6.69-.13-9.12-.24-17.96-.72-26.43-1.41-6.19-.51-12.17-1.13-17.92-1.86-1.13-.14-2.25-.29-3.36-.44-2.27-.31-4.51-.63-6.69-.97-9.71-1.52-18.58-3.36-26.43-5.45-6.79-1.81-12.82-3.81-17.92-5.98-1.17-.5-2.29-1.01-3.36-1.52-2.52-1.21-4.75-2.46-6.69-3.75-5.68-3.76-8.87-7.85-8.95-12.12h-.02l.02-29.3Z"/>
              <path class="cls-18" d="M998.27,834.77c0,4.34,3.19,8.48,8.95,12.3,1.95,1.29,4.17,2.55,6.69,3.76,1.07,.51,2.19,1.02,3.36,1.52,5.1,2.17,11.13,4.17,17.92,5.98,7.85,2.09,16.72,3.93,26.43,5.45,2.19,.34,4.43,.66,6.69,.97,1.11,.15,2.23,.3,3.36,.45,5.75,.73,11.74,1.35,17.92,1.86,8.47,.7,17.31,1.18,26.43,1.41,2.22,.06,4.45,.1,6.69,.13,1.11,.01,2.24,.02,3.36,.02,1,0,1.98,.02,2.98,.02,5.06,0,10.03-.08,14.94-.22,9.13-.26,17.97-.77,26.43-1.5,2.26-.19,4.49-.4,6.69-.63,1.12-.11,2.25-.23,3.36-.35,6.24-.69,12.23-1.5,17.92-2.42,9.75-1.57,18.63-3.47,26.43-5.63,2.33-.65,4.56-1.32,6.69-2.01,1.15-.37,2.27-.75,3.36-1.14,7.59-2.69,13.66-5.68,17.92-8.89,4.57-3.44,7.08-7.12,7.08-10.96l-.02,29.3h-.02c-.08,3.77-2.57,7.39-7.05,10.77-4.26,3.21-10.33,6.21-17.92,8.9-1.09,.39-2.21,.77-3.36,1.14-2.13,.69-4.36,1.37-6.69,2.01-7.8,2.16-16.68,4.06-26.43,5.63-5.7,.92-11.68,1.73-17.92,2.42-1.11,.12-2.24,.24-3.36,.35-2.2,.22-4.43,.43-6.69,.63-8.46,.72-17.3,1.23-26.43,1.5-4.91,.14-9.89,.22-14.96,.22-1,0-1.98-.01-2.97-.02-1.12,0-2.25,0-3.36-.02-2.25-.03-4.48-.07-6.69-.13-9.12-.24-17.96-.72-26.43-1.41-6.19-.51-12.17-1.13-17.92-1.86-1.13-.14-2.25-.29-3.36-.44-2.27-.31-4.51-.63-6.69-.97-9.71-1.52-18.58-3.36-26.43-5.45-6.79-1.81-12.82-3.81-17.92-5.98-1.17-.5-2.29-1.01-3.36-1.52-2.52-1.21-4.75-2.46-6.69-3.75-5.68-3.76-8.87-7.85-8.95-12.12h-.02l.02-29.3Z"/>
              <ellipse class="cls-11" cx="1129.08" cy="831.14" rx="130.82" ry="33.8"/>
              <path class="cls-11" d="M1129.1,810.29c-60.96-.03-110.92,9.98-115.71,22.73-.25-.66-.41-1.33-.41-2.01,0-13.69,51.99-24.77,116.12-24.73,64.12,.03,116.1,11.16,116.09,24.85,0,.68-.16,1.34-.41,2-4.78-12.75-54.73-22.81-115.68-22.84Z"/>
              <path class="cls-16" d="M1129.1,810.29c-60.96-.03-110.92,9.98-115.71,22.73-.25-.66-.41-1.33-.41-2.01,0-13.69,51.99-24.77,116.12-24.73,64.12,.03,116.1,11.16,116.09,24.85,0,.68-.16,1.34-.41,2-4.78-12.75-54.73-22.81-115.68-22.84Z"/>
              <path class="cls-8" d="M1129.07,855.87c-60.95-.03-110.9-10.09-115.68-22.84,4.78-12.75,54.74-22.76,115.71-22.73,60.95,.03,110.9,10.09,115.68,22.84-4.78,12.75-54.74,22.76-115.71,22.73Z"/>
              <g>
                <g>
                  <path class="cls-11" d="M1259.91,831.28l-.02,29.3h-.02c-.08,3.77-2.57,7.39-7.05,10.77v-29.1c4.57-3.44,7.08-7.12,7.08-10.96Z"/>
                  <path class="cls-11" d="M1126.09,894.12c-1.12,0-2.25,0-3.36-.02v-29.12c1.11,.01,2.24,.02,3.36,.02v29.12Z"/>
                  <path class="cls-11" d="M1180.49,891.44c-1.11,.12-2.24,.24-3.36,.35v-29.12c1.12-.11,2.25-.23,3.36-.35v29.12Z"/>
                  <path class="cls-11" d="M1234.9,880.24c-1.09,.39-2.21,.77-3.36,1.14v-29.11c1.15-.37,2.27-.75,3.36-1.14v29.11Z"/>
                  <path class="cls-11" d="M998.27,831.14c0,4.34,3.19,8.48,8.95,12.3v29.13c-5.68-3.76-8.87-7.85-8.95-12.12h-.02l.02-29.3Z"/>
                  <path class="cls-11" d="M1017.28,877.84c-1.17-.5-2.29-1.01-3.36-1.52v-29.12c1.07,.51,2.19,1.02,3.36,1.52v29.12Z"/>
                  <path class="cls-11" d="M1068.32,861.11c1.11,.15,2.23,.3,3.36,.45,5.75,.73,11.74,1.35,17.92,1.86,8.47,.7,17.31,1.18,26.43,1.41v29.12c-9.12-.24-17.96-.72-26.43-1.41-6.19-.51-12.17-1.13-17.92-1.86-1.13-.14-2.25-.29-3.36-.44-2.27-.31-4.51-.63-6.69-.97-9.71-1.52-18.58-3.36-26.43-5.45v-29.12c7.85,2.09,16.72,3.93,26.43,5.45,2.19,.34,4.43,.66,6.69,.97Z"/>
                </g>
                <g>
                  <path class="cls-5" d="M1224.84,854.28c2.33-.65,4.56-1.32,6.69-2.01v29.11c-2.13,.69-4.36,1.37-6.69,2.01-7.8,2.16-16.68,4.06-26.43,5.63-5.7,.92-11.68,1.73-17.92,2.42v-29.12c6.24-.69,12.23-1.5,17.92-2.42,9.75-1.57,18.63-3.47,26.43-5.63Z"/>
                  <path class="cls-5" d="M1252.82,871.34c-4.26,3.21-10.33,6.21-17.92,8.9v-29.11c7.59-2.69,13.66-5.68,17.92-8.89v29.1Z"/>
                  <path class="cls-5" d="M1144.01,864.79c9.13-.26,17.97-.77,26.43-1.5,2.26-.19,4.49-.4,6.69-.63v29.12c-2.2,.22-4.43,.43-6.69,.63-8.46,.72-17.3,1.23-26.43,1.5-4.91,.14-9.89,.22-14.96,.22-1,0-1.98-.01-2.97-.02v-29.12c1,0,1.98,.02,2.98,.02,5.06,0,10.03-.08,14.94-.22Z"/>
                  <path class="cls-5" d="M1122.73,894.09c-2.25-.03-4.48-.07-6.69-.13v-29.12c2.22,.06,4.45,.1,6.69,.13v29.12Z"/>
                  <path class="cls-5" d="M1035.21,883.82c-6.79-1.81-12.82-3.81-17.92-5.98v-29.12c5.1,2.17,11.13,4.17,17.92,5.98v29.12Z"/>
                  <path class="cls-5" d="M1013.92,847.2v29.12c-2.52-1.21-4.75-2.46-6.69-3.75v-29.13c1.95,1.29,4.17,2.55,6.69,3.76Z"/>
                </g>
              </g>
            </g>
            <g>
              <ellipse class="cls-11" cx="1132.78" cy="723.6" rx="117.18" ry="116"/>
              <ellipse class="cls-11" cx="1132.78" cy="723.6" rx="98.41" ry="97.43"/>
              <ellipse class="cls-16" cx="1132.78" cy="723.6" rx="98.41" ry="97.43"/>
              <ellipse class="cls-8" cx="1132.78" cy="723.6" rx="92.88" ry="91.95"/>
              <path class="cls-10" d="M1174,738.67c.35,4.38-.11,8.38-1.38,12.02-1.27,3.64-3.23,6.84-5.87,9.61-2.65,2.77-5.92,5.08-9.82,6.93-3.9,1.85-8.27,3.17-13.13,3.97l-.29,16.46c-.02,.41-.11,.78-.26,1.1-.15,.32-.46,.6-.93,.84-.47,.24-1.11,.46-1.94,.66-.83,.19-1.88,.34-3.15,.44-1.63,.13-2.94,.16-3.95,.09-1-.07-1.8-.23-2.38-.46-.58-.24-.98-.57-1.2-1.02-.22-.44-.29-.95-.24-1.52l.36-15.62c-2.21-.13-4.31-.36-6.28-.69-1.97-.33-3.77-.72-5.39-1.18-1.62-.46-3.03-.95-4.23-1.47-1.19-.52-2.11-1.05-2.74-1.59-.63-.54-1.12-1.37-1.47-2.49-.35-1.13-.61-2.81-.79-5.05-.14-1.73-.2-3.16-.19-4.29,.01-1.13,.12-2.01,.33-2.64,.2-.63,.49-1.08,.85-1.34,.36-.26,.8-.41,1.31-.45,.66-.05,1.66,.25,2.99,.91,1.33,.66,3.03,1.37,5.09,2.13,2.06,.76,4.53,1.4,7.41,1.94,2.89,.54,6.24,.65,10.05,.35,5.95-.48,10.29-1.94,13.01-4.38,2.72-2.45,3.94-5.5,3.64-9.17-.2-2.44-.98-4.4-2.35-5.88-1.37-1.48-3.15-2.73-5.33-3.76-2.18-1.03-4.62-1.91-7.32-2.64-2.7-.73-5.46-1.52-8.29-2.37-2.83-.85-5.62-1.88-8.35-3.09-2.74-1.21-5.23-2.78-7.48-4.7-2.26-1.92-4.12-4.32-5.61-7.19-1.49-2.88-2.4-6.43-2.74-10.65-.31-3.82,.05-7.34,1.07-10.57,1.02-3.23,2.63-6.11,4.84-8.65,2.2-2.53,4.99-4.66,8.36-6.39,3.37-1.73,7.25-3.03,11.63-3.89l.3-15.47c.02-.41,.1-.76,.26-1.06,.15-.29,.47-.58,.93-.84,.47-.27,1.1-.48,1.91-.65,.81-.17,1.87-.3,3.19-.41,1.58-.13,2.89-.16,3.95-.09,1.05,.07,1.87,.22,2.46,.45,.58,.24,.97,.58,1.16,1.02,.19,.44,.31,.95,.35,1.51l-.37,14.55c1.44,.09,2.96,.25,4.57,.48,1.61,.23,3.11,.53,4.53,.9,1.41,.37,2.7,.78,3.86,1.23,1.16,.44,1.98,.87,2.45,1.26,.47,.4,.83,.8,1.1,1.22,.26,.41,.48,.93,.66,1.56,.18,.63,.33,1.38,.45,2.27,.12,.89,.23,1.92,.32,3.09,.13,1.58,.19,2.88,.2,3.9,0,1.02-.07,1.81-.23,2.36-.16,.55-.36,.93-.6,1.12-.24,.2-.54,.31-.9,.34-.66,.05-1.66-.2-2.98-.76-1.33-.56-2.95-1.15-4.87-1.76-1.92-.61-4.11-1.15-6.58-1.62-2.47-.47-5.16-.59-8.06-.35-2.65,.21-4.89,.65-6.73,1.31-1.84,.66-3.31,1.5-4.41,2.5-1.1,1.01-1.88,2.17-2.33,3.49-.46,1.32-.63,2.74-.5,4.27,.19,2.39,.99,4.35,2.39,5.88,1.4,1.53,3.21,2.79,5.41,3.79,2.2,1,4.68,1.88,7.43,2.63,2.75,.75,5.55,1.55,8.41,2.4,2.86,.85,5.68,1.86,8.46,3.05,2.78,1.19,5.3,2.73,7.55,4.62,2.25,1.89,4.13,4.25,5.64,7.08,1.51,2.82,2.42,6.3,2.76,10.42Z"/>
            </g>
          </g>
          <g>
            <path class="cls-57" d="M109.6,396.97c-.02-.29-.05-.57-.12-.83,9.67,0,67.84-1.82,67.84-1.82,0,0-3.07,16.28-11,22.65-24.61,.9-27.61,0-27.61,0l-35.54-4.57s6.77-10.29,6.42-15.43Z"/>
            <path class="cls-14" d="M255.85,240.74c-.57,5.19-2.01,10.28-4.37,14.94-.77,1.53-1.5,3.11-2.2,5.21-.89,2.64-2.64,13.99-5.33,14.71-1.82,.48-1.12-7.83-1.45-9.79-.31-1.85-1.94-3.54-2.68-5.26-3.7-8.56-5.76-18.47-12.92-24.44-3.96-3.3-9.25-4.87-14.37-4.52-5.55,.38-9.85,4.86-15.17,5.07-10.13,.4-22.13-6.76-27.33-15.15-3.97-6.4-5.14-14.6-2.59-21.7s8.93-12.8,16.37-14.03c1.71-.28,3.51-.33,5.11,.32,1.3,.52,2.38,1.45,3.47,2.31,5.07,3.99,11.02,6.86,17.3,8.33,7.79,1.83,15.91,1.51,23.87,2.38,4.59,.5,9.42,1.54,12.73,4.76,4.19,4.07,7.43,14.01,8.68,20.99,1.38,6.14,1.53,10.03,.89,15.88Z"/>
            <path class="cls-62" d="M156.26,506.85c2.5-5.5,4.57-9.31,5.86-11.52,29.98-7.73,111.85-8.65,123.59-4.66,.89,.3,1.69,.69,2.42,1.15,1.38,2.6,2.74,5.34,4.08,8.23,.71,1.54,1.4,3.13,2.08,4.74,16.86,39.93,23.5,101.34,25.07,163.86,.88,35.38,.14,71.12-1.29,103.51-3.14,70.99-9.62,125.93-9.62,125.93h-25.15c-.65-6.78-36.08-322.37-66.58-323.88-7.14-.35-14.43,26.94-21.18,65.82-16.43,94.68-29.63,258.06-29.63,258.06h-26.45s-10.96-144.4-11.66-219.67c-.87-93.51,17.75-148.05,28.46-171.58Z"/>
            <path class="cls-13" d="M201.15,564.54c7.59,1.07,15.58,9.67,15.58,9.67-7.14-.35-14.43,26.94-21.18,65.82-.27-25.58-.08-76.29,5.6-75.49Z"/>
            <path class="cls-13" d="M312.69,766.65c-7.5-13.71-6-73.84-18.99-133.96-12.99-60.12-44.98-118.66-44.98-118.66,8.77-18.88,27.88-18,45.58-9.24,16.86,39.93,23.5,101.34,25.07,163.86,.88,35.38,.14,71.12-1.29,103.51-2.1-1.15-3.97-2.92-5.39-5.52Z"/>
            <polygon class="cls-2" points="162.81 907.31 163.47 898.11 141.96 898.11 142.83 907.31 162.81 907.31"/>
            <polygon class="cls-2" points="305.59 908.02 306.24 898.12 285.22 898.12 286.07 908.02 305.59 908.02"/>
            <path class="cls-63" d="M271.73,927.98c.35-1.84,2.1-3.54,4.84-4.93h0l6.52-15.74h25.31l4.49,14.95h0c3.75,1.51,6.18,3.5,6.6,5.72h.07v8.38c0,.86-.58,1.56-1.29,1.56h-45.32c-.71,0-1.29-.7-1.29-1.56v-8.38h.07Z"/>
            <path class="cls-61" d="M135.49,907.31s-3.2,6.65-6.26,8.96c-3.06,2.31-38.77,7.23-41.57,12.29-2.8,5.06,1.87,7.81,2.27,7.81s75.01,.72,75.68,0-.27-29.05-.27-29.05h-29.85Z"/>
            <polygon class="cls-2" points="206.13 280.74 211.52 306.15 244.79 302.8 242.5 265.81 211.52 265.73 206.13 280.74"/>
            <path class="cls-3" d="M240.71,269.3s-7.28,20.03-14.85,21.98-18.29-3.77-18.29-3.77l-1.44-6.77s6.59,4.62,11.64,4.3c5.05-.31,4.49-.21,5.05-.31l.57-.11s9.06-.82,17.31-15.33Z"/>
            <path class="cls-2" d="M186.45,236.92c-3.27-7.05-.22-9.66,4.52-10.9,4.42-1.15,10.31-1.11,13.97-2.33,3.86-1.29,7.73-2.03,11.73-2.8,6.84-1.31,10.62,4.72,12.29,8.87,.03,.07,.06,.15,.09,.22,1.55,4,3.91,13.67,5.94,16.63,2.07,3.02,2.65-12.7,8.26-14.86,1.24-.48,2.41-.85,3.92-.65,2.85,.38,5.34,2.59,6.19,5.46,1.16,3.89-.06,8.06-1.93,11.52-1.87,3.46-4.38,6.51-6.13,10.04-3.49,7.07-3.78,15.78-8.26,22.19-5.03,7.19-14.83,9.83-23.23,7.26-8.4-2.57-15.24-9.73-18.82-18.1-4.51-10.55-3.76-22.21-8.56-32.57Z"/>
            <path class="cls-3" d="M209.84,227.71c-9.35,.66-16.55-1.04-18.87-1.69,4.42-1.15,10.31-1.11,13.97-2.33,3.86-1.29,7.73-2.03,11.73-2.8,6.84-1.31,10.62,4.72,12.29,8.87,.03,.07,.06,.15,.09,.22-3.29-2.93-10.1-2.92-19.22-2.27Z"/>
            <path class="cls-58" d="M166.64,391.86c0-.08,0-.16,0-.23,.03-.74,.05-1.65,.04-2.63l-6.18-.71s0-.1,0-.27c-8.32,3.69-25.46,2.55-44.38,3.07l25.87-4.67c1.13-.65,17.39-72.47,23.5-80.72,3.82-5.16,25.8-24.03,41.75-17.15,2.31,1,4.18,2.97,6.13,4.93,.22,.22,.44,.43,.66,.65,8.32,8.78,16.34,6.64,21.84,2.98,3.7-2.1,6.73-4.95,8.77-6.66,.38-.06,.77-.08,1.17-.05,4.12,.29,12.47,.93,21.52,1.93,9.7,1.07,20.19,2.54,27.16,4.44,1.55,.42,.85-.29,2,.17,0,0,23.34,7.27,31.91,48.25,0,0,21.64,72.76,8.95,84-12.69,11.24-36.94,6.7-36.94,6.7l-.55,35.22c.67,6.02,1.3,11.94,1.73,17.51,1.82,23.69,.03,41.16-17.24,34.31-90-35.69-163.75,24.11-135.13-26.23,9.18-16.14,17.06-77.76,17.44-104.83Z"/>
            <g class="cls-16">
              <path class="cls-12" d="M214.02,294.13c8.32,8.78,16.34,6.64,21.84,2.98,3.7-2.1,6.73-4.96,8.77-6.66,.38-.06,.77-.08,1.16-.05,4.12,.29,12.47,.93,21.52,1.93,9.7,1.07,20.19,2.54,27.16,4.44,.25,4.38-13.83,.56-24.15-.05-10.96-.64-20.5,13.07-39.38,12.64-17.93-.41-23.21-18.94-23.7-20.8,2.12,1.35,4.18,2.97,6.13,4.93,.22,.22,.44,.43,.66,.65Z"/>
            </g>
            <polygon class="cls-13" points="300.38 435.89 233.06 412.64 299.89 461.33 300.38 435.89"/>
            <path class="cls-13" d="M294.88,331.8s-2.69,38.27,2.69,56.69c-29.36-4.86-67.88-7.03-67.88-7.03l60.58,.55s-1.92-26.52,4.6-50.21Z"/>
            <polygon class="cls-13" points="211.9 385.17 212.29 403.75 225.18 409.06 214.59 400.95 213.58 381.51 211.98 381.51 211.9 385.17"/>
            <g>
              <polygon class="cls-59" points="83.19 378.31 128.27 377.7 178.21 388.77 178.21 394.29 98.76 396.65 83.19 378.31"/>
              <polygon class="cls-60" points="52.69 310.01 0 307.54 44.56 384.63 101.84 396.65 52.69 310.01"/>
            </g>
            <path class="cls-2" d="M212.66,381.42s-26.22-11.83-34.14-13.67-18.34-3.99-25.21,.92-16.88,15.03-13.75,16.26c3.13,1.23,5.21,1.84,7.5,1.23,2.29-.61,13.34-6.14,20.63-3.99,7.29,2.15,7.71,7.06,10.42,7.98,2.71,.92,11.04,1.23,13.96,.61,2.92-.61,20.63,12.58,20.63,12.58l-.03-21.92Z"/>
            <path class="cls-2" d="M71.39,374.96c5.85,2.8,7.43,3.38,9.08,7.22,.04,.09,.47,1.48,.46,1.56,1.41,3.07,.84,2.14,1.27,2.97,1.64,3.18-.39-1.51,2.72-1.95,1.78-.26,3.22,.41,5.53,4.27,1.29,2.15,5.65,6.16,11.05,7.28,1.53,.32,4.81,.04,8.03,.08,.7,5.56-6.02,16.02-6.02,16.02l-.27-.04c-2.61-.33-4.76-.4-6.44-.61-9.86-1.23-26.9-11.23-29.87-14.66-2.06-2.39-5.07-11.77-6.14-20.62-.46-4.55,3.79-4.75,10.58-1.5Z"/>
          </g>
        </g>
      </g>
    </g>
  </g>
</svg>